<?xml version="1.0" encoding="utf-8"?>
<!-- Generator: Adobe Illustrator 21.1.0, SVG Export Plug-In . SVG Version: 6.00 Build 0)  -->
<svg version="1.1" id="Layer_1" xmlns="http://www.w3.org/2000/svg" xmlns:xlink="http://www.w3.org/1999/xlink" x="0px" y="0px"
	 viewBox="0 0 250 194" style="enable-background:new 0 0 250 194;" xml:space="preserve">
<style type="text/css">
	.st0{fill:#61E8F2;}
</style>
<path class="st0" d="M147.6,136.9v24.2H95.7V87H0v79h87.6h8.1h56.8v-29.1H147.6z M90.8,91.9V102h-86V91.9H90.8z M87.6,161.1H4.9
	v-54.7h86v54.7H87.6z"/>
<rect x="20" y="113.1" class="st0" width="56" height="4.5"/>
<rect x="20" y="124.3" class="st0" width="56" height="4.5"/>
<rect x="20" y="135.4" class="st0" width="56" height="4.5"/>
<rect x="20" y="146.5" class="st0" width="56" height="4.5"/>
<path class="st0" d="M27.5,60.5c-6.6,0-12-5.4-12-12s5.4-12,12-12s12,5.4,12,12S34.1,60.5,27.5,60.5z M27.5,41.5c-3.9,0-7,3.1-7,7
	s3.1,7,7,7s7-3.1,7-7S31.4,41.5,27.5,41.5z"/>
<path class="st0" d="M54.2,82.2c-5.5,0-10-4.5-10-10s4.5-10,10-10s10,4.5,10,10S59.8,82.2,54.2,82.2z M54.2,66.2c-3.3,0-6,2.7-6,6
	s2.7,6,6,6s6-2.7,6-6S57.6,66.2,54.2,66.2z"/>
<path class="st0" d="M186,158c-5.5,0-10-4.5-10-10s4.5-10,10-10s10,4.5,10,10S191.5,158,186,158z M186,142c-3.3,0-6,2.7-6,6
	s2.7,6,6,6s6-2.7,6-6S189.3,142,186,142z"/>
<path class="st0" d="M79,65c-9.9,0-18-8.1-18-18s8.1-18,18-18s18,8.1,18,18S88.9,65,79,65z M79,35c-6.6,0-12,5.4-12,12s5.4,12,12,12
	s12-5.4,12-12S85.6,35,79,35z"/>
<circle class="st0" cx="81.5" cy="48.5" r="5.5"/>
<circle class="st0" cx="127.5" cy="146.5" r="5.5"/>
<circle class="st0" cx="230.5" cy="47.5" r="10.5"/>
<path class="st0" d="M182.8,70.7c-5.6-9.6-20.9-12.6-31.1-14.6c-1.1-0.2-2.1-0.4-3.1-0.6c-2-0.4-3.3-0.9-4.2-1.2
	c-1.2-0.4-5.2-3.2-6.7-2c-1.5,1.3,0.8,3.9,1.2,5.9c0.4,2,0.6,2.9,0.7,4.8c0.1,1.2,0,3.1,0,5.4c-0.3,9.2-1,23.3,7.3,30.3
	c5.6,4.7,15.1,6.5,25.2,0.6c2.7-1.6,5-5.1,1.1-9.4s-8.1-9.5-10.7-12.1c-1-1-4-3.1-5.5-1.9c-1.5,1.2,0.1,4.4,1.2,5.9
	c2.8,3.5,10,11.9,9.7,12.3c-1.5,2.4-11.1,5.4-17.1,0.2c-6-5.3-5.5-18-5.2-25.6c0.1-2.4,0.2-4.5,0-6.1c0-0.6-0.1-1.2-0.2-1.7
	c0.6,0.1,1.2,0.3,1.9,0.4c1,0.2,2,0.4,3.2,0.6c9.1,1.8,22.8,4.5,27,11.7c1.6,2.8,0.7,11.3,1.1,13c0.6,2.9,3.8,3.3,5.4,1.2
	C185.8,85.8,185.4,75,182.8,70.7z"/>
<g>
	<path class="st0" d="M247.7,145.7l-6.2-6.2l-18,18l6.2,6.2c3.1,3.1,8.1,3.1,11.1,0l6.9-6.9C250.8,153.8,250.8,148.8,247.7,145.7z"
		/>
	
		<rect x="209.7" y="129.8" transform="matrix(0.7071 -0.7071 0.7071 0.7071 -32.7422 197.8406)" class="st0" width="25.4" height="17.2"/>
	<path class="st0" d="M216.3,114.3c-2.5-2.5-6.4-3-9.4-1.3l-7.9-7.9c6-8.3,9.6-18.5,9.6-29.6c0-27.9-22.6-50.5-50.5-50.5
		s-50.5,22.6-50.5,50.5c0,27.9,22.6,50.5,50.5,50.5c11.8,0,22.7-4.1,31.3-10.9l7.7,7.7c-1.6,3-1.2,6.8,1.3,9.3l4.3,4.3l18-18
		L216.3,114.3z M118,75.5c0-22.1,17.9-39.9,39.9-39.9s39.9,17.9,39.9,39.9S180,115.5,158,115.5S118,97.6,118,75.5z"/>
</g>
<path class="st0" d="M120.5,125H116v-4.5c0-1.4-1.1-2.5-2.5-2.5s-2.5,1.1-2.5,2.5v4.5h-4.5c-1.4,0-2.5,1.1-2.5,2.5s1.1,2.5,2.5,2.5
	h4.5v4.5c0,1.4,1.1,2.5,2.5,2.5s2.5-1.1,2.5-2.5V130h4.5c1.4,0,2.5-1.1,2.5-2.5S121.9,125,120.5,125z"/>
<path class="st0" d="M247.2,93.7h-6.9v-6.9c0-1.4-1.2-2.6-2.6-2.6h-1.8c-1.4,0-2.6,1.2-2.6,2.6v6.9h-6.9c-1.4,0-2.6,1.2-2.6,2.6v1.8
	c0,1.4,1.2,2.6,2.6,2.6h6.9v6.9c0,1.4,1.2,2.6,2.6,2.6h1.8c1.4,0,2.6-1.2,2.6-2.6v-6.9h6.9c1.4,0,2.6-1.2,2.6-2.6v-1.8
	C249.8,94.9,248.6,93.7,247.2,93.7z"/>
</svg>
