<svg width="114" height="114" viewBox="0 0 114 114" fill="none" xmlns="http://www.w3.org/2000/svg">
<path d="M59.5604 113.421C41.0577 110.571 15.2964 88.7731 4.58663 66.9082C2.87217 63.4125 1.73663 60.4067 0.823736 57C0.200299 54.6621 0.133502 54.1278 0.133502 50.7657C0.111236 47.2254 0.133502 47.0473 0.712408 45.8004C1.42491 44.2641 4.67569 40.6571 7.10264 38.72C10.1308 36.2485 12.4019 35.5137 14.9179 36.1594C15.6526 36.3598 16.7437 36.7828 17.3226 37.1168C18.6808 37.9184 21.3972 40.6348 22.9558 42.75C26.4069 47.4481 27.5647 50.6321 26.83 53.5043C26.3847 55.2856 25.4718 56.6215 22.8667 59.3825C20.5065 61.8762 20.2839 62.3661 20.7069 64.2364C21.4417 67.5094 24.9374 72.4301 31.105 78.8204C40.6124 88.7063 48.0491 93.8497 51.5448 92.9813C51.8565 92.8922 53.2147 91.8012 54.5507 90.5321C55.9979 89.1516 57.512 87.9493 58.3581 87.504C61.787 85.6782 65.5054 86.6579 71.0495 90.8438C77.796 95.8981 79.3101 100.262 76.0147 105.25C74.7679 107.12 69.6022 112.107 68.244 112.775C66.1956 113.777 63.2343 114 59.5604 113.421ZM63.2343 109.436C65.5276 108.834 67.2198 107.788 69.3128 105.695C70.3815 104.604 71.2276 103.602 71.1831 103.468C71.094 103.201 65.9284 100.218 65.5499 100.195C65.4163 100.195 65.1714 100.618 65.0155 101.153C64.2808 103.669 62.878 105.472 60.9409 106.407C59.0929 107.32 57.3339 107.632 54.8401 107.454C53.7046 107.387 52.7694 107.387 52.7694 107.454C52.7694 107.521 53.4374 107.877 54.2612 108.256C57.4229 109.681 60.696 110.104 63.2343 109.436ZM7.34756 59.7832C6.70186 56.7774 6.92452 53.3707 7.88194 51.4559C8.72803 49.8082 9.99717 48.8508 12.6023 47.8489L13.9605 47.3368L12.1792 44.5536C11.1773 43.0172 10.3534 41.7036 10.3089 41.659C10.2198 41.5254 7.99327 43.6184 6.94678 44.843C4.36397 47.8934 3.696 51.3446 4.94288 55.4414C5.36592 56.7996 7.3253 60.8965 7.48116 60.7407C7.50342 60.6961 7.45889 60.2731 7.34756 59.7832Z" fill="url(#paint0_linear)"/>
<path d="M52.1906 62.4328C54.6621 59.4715 56.5769 55.7977 57.6457 51.9457L58.0687 50.3649L56.6437 49.4297C48.2273 43.9746 43.3734 35.3356 43.9523 26.7188C44.6425 15.9867 52.9254 6.61291 65.3941 2.44924C72.7863 2.12193e-05 80.3343 -0.40076 88.2386 1.2469C91.4894 1.93713 93.9832 2.78322 97.234 4.34182C100.796 6.03401 103.468 7.92658 106.341 10.7988C109.948 14.3613 111.885 17.5008 113.265 21.9762C113.822 23.802 113.866 24.2028 113.866 28.0547C113.866 31.9067 113.822 32.3074 113.265 34.1332C111.885 38.6086 109.948 41.7703 106.341 45.3106C101.019 50.6098 94.5398 53.816 86.3015 55.2188C82.9617 55.7754 78.375 55.9981 75.614 55.6863L73.4097 55.4637L72.2742 56.4879C67.9992 60.3399 61.3863 62.9449 53.4375 63.9024C50.5207 64.2586 50.5875 64.3254 52.1906 62.4328ZM64.9488 32.8863C65.3273 32.686 65.973 32.1961 66.3515 31.7953C69.5133 28.6559 67.5984 23.2231 63.1898 22.7778C61.4754 22.5996 60.2508 23.0227 59.0039 24.1805C57.4008 25.6946 56.8664 27.5871 57.4898 29.6578C57.8461 30.8824 59.4715 32.6192 60.6293 33.0422C61.7648 33.4653 63.9691 33.3762 64.9488 32.8863ZM80.6238 33.1313C81.7593 32.7973 83.1621 31.5949 83.7633 30.4149C84.4535 29.1457 84.4535 26.9637 83.7633 25.6946C81.8261 21.9762 76.6605 21.7313 74.5008 25.2492C73.7437 26.4739 73.4765 28.3887 73.8996 29.6801C74.8347 32.4856 77.7738 33.9996 80.6238 33.1313ZM97.7683 32.7973C101.732 30.7711 101.732 25.3383 97.7683 23.3344C94.7402 21.7981 91.2222 23.3789 90.2426 26.6965C89.9531 27.7207 89.9531 28.0992 90.1758 29.1012C90.7101 31.5281 92.9812 33.3985 95.4082 33.3985C96.2097 33.3985 96.9 33.2203 97.7683 32.7973Z" fill="url(#paint1_linear)"/>
<defs>
<linearGradient id="paint0_linear" x1="38.9099" y1="35.9373" x2="38.9099" y2="113.736" gradientUnits="userSpaceOnUse">
<stop stop-color="#45D3FE"/>
<stop offset="1" stop-color="#2674CC"/>
</linearGradient>
<linearGradient id="paint1_linear" x1="78.8861" y1="0.25293" x2="78.8861" y2="64.1007" gradientUnits="userSpaceOnUse">
<stop stop-color="#45D3FE"/>
<stop offset="1" stop-color="#2674CC"/>
</linearGradient>
</defs>
</svg>
