<svg width="1920" height="577" viewBox="0 0 1920 577" fill="none" xmlns="http://www.w3.org/2000/svg">
<path fill-rule="evenodd" clip-rule="evenodd" d="M-145 1356.79V120.596C-102.3 145.015 -52.4129 180.894 1.43051 219.619C70.2846 269.14 145.609 323.314 220.647 364.125C410.922 467.826 565.934 416.915 801.683 339.488C850.485 323.46 902.746 306.296 959.495 289.132C1045.69 263.062 1142.83 228.613 1244.34 192.615C1532.54 90.4155 1855.95 -24.2729 2064 4.83808C2237.21 29.1212 2301.41 144.61 2357.18 244.936C2409.9 339.775 2455.09 421.065 2577.71 398.953C2647.21 386.41 2705.99 360.522 2756 327.829V1376.67L2394 1374.14V600.764C2356.86 624.807 2313.48 660.135 2266.65 698.265C2206.77 747.024 2141.26 800.365 2076 840.549C1910.51 942.655 1775.7 892.527 1570.67 816.29C1528.23 800.508 1482.78 783.608 1433.42 766.708C1145.64 668.166 973.761 628.093 729.083 666.852C600.118 687.322 491.006 738.737 390.545 786.075C262.736 846.3 148.929 899.927 26.0594 874.841C-34.3875 862.49 -85.5045 837.001 -129 804.811V1356.9L-145 1356.79Z" fill="url(#paint0_linear)"/>
<defs>
<linearGradient id="paint0_linear" x1="1304.93" y1="311.598" x2="1343.73" y2="918.359" gradientUnits="userSpaceOnUse">
<stop stop-color="#2A78C8"/>
<stop offset="1" stop-color="#0F59C0"/>
</linearGradient>
</defs>
</svg>
