<svg width="112" height="146" viewBox="0 0 112 146" fill="none" xmlns="http://www.w3.org/2000/svg">
<path d="M105.188 65.6141C105.188 65.4424 105.018 65.2706 104.847 65.2706L60.099 2.23294C59.2451 0.858824 57.7079 0 56 0C54.2921 0 52.7549 0.858824 51.901 2.23294L7.15327 65.2706C6.98248 65.4424 6.98248 65.6141 6.81168 65.6141C-2.41113 81.5882 -2.24033 100.998 7.15327 117.315C17.4008 135.007 36.0172 146 56 146C75.9827 146 94.5992 135.007 104.847 117.315C114.24 100.826 114.411 81.5882 105.188 65.6141ZM95.9655 112.162C87.5967 126.762 72.3961 135.694 56 135.694C39.6039 135.694 24.4033 126.762 16.0345 112.162C8.34882 98.7647 8.17802 83.8212 15.5221 70.9388L56 14.0847L96.4779 71.1106C103.822 83.8212 103.48 98.9365 95.9655 112.162Z" fill="url(#paint0_linear)"/>
<defs>
<linearGradient id="paint0_linear" x1="56.6022" y1="12.7171" x2="56.6021" y2="139.283" gradientUnits="userSpaceOnUse">
<stop stop-color="#45D3FE"/>
<stop offset="1" stop-color="#2674CC"/>
</linearGradient>
</defs>
</svg>
