<svg id="Layer_1" data-name="Layer 1" xmlns="http://www.w3.org/2000/svg" xmlns:xlink="http://www.w3.org/1999/xlink" viewBox="0 0 1920 924.3"><defs><style>.cls-1{fill:url(#linear-gradient);}</style><linearGradient id="linear-gradient" x1="946.03" y1="876.56" x2="994.06" y2="146.96" gradientUnits="userSpaceOnUse"><stop offset="0" stop-color="#20aef6"/><stop offset="1" stop-color="#0f59c0"/></linearGradient></defs><title>wave-1</title><path class="cls-1" d="M1920,118.8c-187.9,27.7-413.9,106.6-621.7,179.2-101.5,35.5-198.7,69.4-284.8,95.1-56.8,16.9-109,33.8-157.8,49.6-235.7,76.3-390.8,126.4-581,24.3-75-40.2-150.4-93.5-219.2-142.3-19-13.5-37.5-26.6-55.4-39V994.5a379.6,379.6,0,0,0,80.1,25.8c122.9,25.1,236.7-28.5,364.5-88.8C545,884.2,654.1,832.8,783.1,812.3c244.7-38.8,416.6,1.3,704.3,99.9,49.4,16.9,94.8,33.8,137.3,49.6,114.5,42.6,207.1,77,295.3,81.3Z" transform="translate(0 -118.8)"/></svg>