<svg width="1920" height="1356" viewBox="0 0 1920 1356" fill="none" xmlns="http://www.w3.org/2000/svg">
<path fill-rule="evenodd" clip-rule="evenodd" d="M-91 1336.42V119C-48.2999 143.048 1.58712 178.382 55.4305 216.519C124.285 265.288 199.609 318.639 274.647 358.831C464.922 460.956 619.934 410.819 855.684 334.567C904.485 318.783 956.746 301.879 1013.5 284.976C1099.69 259.303 1196.83 225.377 1298.34 189.925C1586.54 89.2777 1909.95 -23.6689 2118 4.99995C2291.21 28.9143 2355.41 142.649 2411.18 241.452C2463.9 334.851 2509.09 414.906 2631.71 393.13C2701.21 380.777 2759.99 355.282 2810 323.086V1356L2448 1353.51V638.236C2410.86 662.28 2367.48 697.608 2320.65 735.737C2260.77 784.497 2195.26 837.838 2130 878.021C1964.51 980.127 1829.7 929.999 1624.67 853.762C1582.23 837.981 1536.78 821.081 1487.42 804.181C1199.64 705.639 1027.76 665.565 783.083 704.325C654.118 724.795 545.006 776.209 444.545 823.548C316.736 883.772 202.929 937.399 80.0594 912.314C19.6125 899.963 -31.5045 874.474 -75 842.283V1336.53L-91 1336.42Z" fill="url(#paint0_linear)"/>
<defs>
<linearGradient id="paint0_linear" x1="1358.93" y1="307.101" x2="1425.82" y2="1323.01" gradientUnits="userSpaceOnUse">
<stop stop-color="#20AEF6"/>
<stop offset="1" stop-color="#0F59C0"/>
</linearGradient>
</defs>
</svg>
