<?xml version="1.0" standalone="no"?>
<!DOCTYPE svg PUBLIC "-//W3C//DTD SVG 20010904//EN"
 "http://www.w3.org/TR/2001/REC-SVG-20010904/DTD/svg10.dtd">
<svg version="1.0" xmlns="http://www.w3.org/2000/svg"
 width="1280.000000pt" height="720.000000pt" viewBox="0 0 1280.000000 720.000000"
 preserveAspectRatio="xMidYMid meet">
<metadata>
Created by potrace 1.16, written by Peter Selinger 2001-2019
</metadata>
<g transform="translate(0.000000,720.000000) scale(0.100000,-0.100000)"
fill="#000000" stroke="none">
<path d="M11841 7104 c-35 -13 -83 -35 -107 -48 -25 -14 -61 -27 -82 -31 -34
-5 -333 -64 -512 -100 -41 -8 -131 -26 -200 -40 -69 -14 -237 -48 -375 -76
-137 -28 -285 -57 -327 -64 -42 -7 -81 -16 -86 -19 -13 -8 -134 -22 -527 -62
-82 -8 -176 -18 -207 -21 l-58 -6 0 59 c0 84 -29 131 -100 166 l-55 28 -280 1
c-249 2 -292 0 -385 -19 -99 -20 -179 -42 -225 -62 -11 -5 -65 -23 -120 -40
-55 -17 -109 -35 -120 -40 -93 -43 -1387 -465 -1920 -625 -66 -20 -275 -87
-465 -149 -190 -63 -372 -121 -405 -131 -33 -9 -71 -21 -85 -27 -56 -22 -140
-47 -215 -63 -44 -9 -91 -20 -105 -25 -14 -4 -56 -16 -95 -24 -38 -9 -142 -34
-230 -55 -88 -22 -250 -60 -360 -86 -110 -25 -245 -57 -300 -70 -55 -13 -129
-31 -165 -39 -303 -71 -382 -89 -430 -97 -30 -5 -66 -14 -80 -18 -14 -5 -79
-21 -145 -36 -66 -15 -172 -39 -235 -55 -63 -15 -151 -36 -195 -45 -44 -9 -91
-21 -105 -26 -14 -5 -74 -19 -135 -33 -125 -27 -408 -98 -505 -126 -36 -11
-117 -28 -180 -39 -342 -61 -512 -98 -594 -129 -67 -26 -69 -26 -82 -7 -31 47
-47 55 -101 55 -50 0 -55 -2 -71 -31 -9 -17 -29 -47 -44 -66 -16 -20 -28 -42
-28 -49 0 -16 -62 -37 -112 -37 -21 0 -38 -3 -38 -8 0 -5 -23 -11 -51 -15 -31
-4 -62 -16 -79 -30 -29 -25 -70 -32 -70 -13 0 8 -14 10 -42 5 -24 -3 -77 -11
-118 -16 -41 -6 -122 -21 -180 -33 l-105 -22 -3 -38 c-3 -37 -2 -38 20 -31 32
11 197 8 288 -4 41 -6 118 -14 171 -17 l97 -7 93 -156 c52 -86 101 -170 109
-187 24 -46 102 -178 116 -195 6 -8 24 -39 39 -68 27 -51 45 -73 45 -53 0 5
-5 11 -11 13 -6 2 -9 15 -7 28 3 23 5 22 23 -14 14 -28 16 -41 7 -44 -8 -2 -9
-9 -2 -23 12 -21 11 -21 -47 -19 -35 1 -44 -3 -59 -24 -21 -33 -15 -108 11
-136 17 -19 17 -25 1 -117 -9 -54 -21 -141 -26 -193 -21 -205 -25 -234 -36
-237 -8 -3 -9 8 -1 42 11 47 5 67 -15 47 -6 -6 -23 -9 -37 -6 -16 3 -34 -1
-46 -11 -19 -15 -19 -16 10 -10 44 8 59 -6 52 -49 -5 -33 -4 -36 20 -36 24 0
25 -2 19 -42 -4 -22 -9 -45 -12 -50 -8 -13 -34 12 -34 33 0 26 -13 30 -44 13
-36 -18 -42 -18 -26 1 7 9 10 19 6 22 -4 4 -10 2 -14 -4 -4 -7 -25 -11 -50 -9
-34 3 -43 0 -48 -16 -8 -25 0 -32 61 -51 28 -9 67 -23 88 -32 38 -16 39 -16
32 -58 -15 -86 -22 -88 -114 -30 -48 31 -55 33 -69 19 -8 -8 -16 -25 -17 -38
l-2 -23 -169 2 c-93 1 -176 3 -184 4 -8 1 -66 1 -127 1 -93 -2 -113 -5 -113
-17 0 -12 17 -15 94 -15 l94 0 10 -47 c21 -95 21 -100 -5 -112 -13 -6 -62 -11
-108 -11 l-85 0 0 -159 0 -158 123 -12 c67 -7 132 -14 145 -15 14 -2 26 4 33
15 5 11 16 19 24 19 8 0 15 5 15 10 0 6 5 10 11 10 6 0 9 -7 6 -15 -4 -8 -2
-17 3 -20 6 -4 10 -1 10 6 0 6 8 9 18 6 44 -12 47 -12 44 5 -4 26 7 22 40 -12
16 -18 38 -30 53 -30 16 0 25 -6 25 -15 0 -13 -15 -15 -102 -10 l-103 5 -20
-42 c-17 -37 -20 -40 -23 -20 -2 13 2 29 8 37 12 14 6 35 -9 35 -5 0 -11 -9
-14 -19 -5 -21 -13 -23 -95 -21 -33 0 -61 -5 -75 -15 -21 -14 -20 -15 20 -15
23 0 53 -4 67 -10 16 -6 27 -6 31 0 10 15 32 12 39 -6 3 -9 -1 -28 -10 -44
-15 -25 -21 -27 -55 -23 -31 5 -39 2 -39 -10 0 -12 7 -15 35 -10 22 4 35 2 35
-5 0 -14 -70 -28 -79 -16 -3 5 -41 11 -83 12 l-78 3 0 -50 c0 -41 3 -49 15
-45 10 4 13 13 10 25 -8 24 30 46 51 28 8 -7 27 -9 45 -5 27 5 30 4 19 -9 -9
-11 -9 -15 -1 -15 6 0 14 7 17 15 5 12 10 13 20 4 8 -6 11 -15 8 -20 -6 -11
38 -22 92 -23 23 -1 37 -4 31 -8 -7 -4 -5 -10 8 -14 11 -5 20 -3 23 4 2 8 30
12 78 12 43 0 74 4 74 10 0 6 5 10 10 10 7 0 7 -7 0 -21 -8 -14 -20 -19 -38
-18 -57 4 -123 -1 -118 -10 4 -5 -18 -3 -46 5 -33 8 -54 10 -56 4 -2 -6 -8
-10 -14 -10 -6 0 -7 7 -4 16 5 13 2 15 -14 11 -11 -3 -23 -1 -26 4 -3 6 -11 5
-20 -2 -11 -9 -15 -8 -20 5 -3 9 -17 16 -31 16 -13 0 -21 -4 -18 -10 3 -5 15
-10 26 -10 24 0 26 -29 2 -31 -10 -1 -36 -1 -58 0 -34 1 -37 -1 -18 -9 34 -14
28 -23 -12 -18 l-35 4 0 -933 0 -933 6400 0 6400 0 0 179 c0 134 -3 181 -12
184 -10 4 -10 6 -1 6 10 1 13 353 13 1671 0 919 -3 1670 -6 1670 -4 0 -32 -9
-63 -19 -31 -10 -105 -33 -166 -51 -60 -18 -154 -47 -208 -66 -97 -34 -147
-42 -147 -25 0 12 26 32 33 25 3 -3 15 0 27 6 16 8 18 15 11 24 -7 9 -7 16 0
23 8 8 6 14 -9 22 -13 7 -18 18 -15 34 3 16 -1 26 -11 30 -19 8 -32 -11 -17
-26 15 -15 14 -27 -4 -27 -10 0 -15 -10 -15 -26 0 -21 -3 -24 -13 -15 -8 6
-17 8 -20 5 -3 -4 -20 7 -37 24 -20 20 -26 33 -19 38 6 4 16 -1 21 -10 8 -14
13 -15 24 -5 19 16 18 27 -6 34 -17 5 -19 12 -13 51 6 49 -3 56 -33 23 -10
-11 -26 -25 -35 -30 -14 -7 -16 -5 -12 11 3 11 9 20 14 20 5 0 6 18 3 40 -4
27 -3 40 5 40 6 0 11 9 11 20 0 11 -7 20 -15 20 -8 0 -15 -5 -15 -11 0 -5 -4
-8 -9 -5 -5 3 -11 -1 -15 -9 -3 -8 -12 -12 -20 -9 -9 4 -16 -2 -19 -18 l-4
-23 -8 23 c-9 27 -41 29 -48 2 -7 -26 -20 -25 -32 2 -13 28 -43 32 -58 7 -14
-22 -27 -25 -27 -5 0 10 -13 13 -47 12 -41 -2 -48 -6 -51 -24 -4 -28 -22 -29
-22 -2 0 11 -5 20 -11 20 -8 0 -9 -15 -5 -45 8 -50 6 -52 -28 -30 -21 14 -25
14 -36 0 -11 -13 -14 -12 -29 7 -10 12 -23 18 -29 14 -18 -11 -15 -56 3 -56 8
0 15 -9 15 -20 0 -17 -5 -19 -25 -14 -21 5 -25 3 -25 -15 0 -14 5 -19 15 -15
10 4 15 0 15 -11 0 -12 -5 -15 -20 -10 -11 4 -20 2 -20 -4 0 -6 9 -16 20 -23
27 -17 26 -38 -2 -30 -14 3 -19 1 -14 -6 7 -12 -42 -42 -69 -42 -18 0 -20 27
-2 33 18 6 -8 34 -30 32 -36 -4 -51 -16 -46 -36 3 -10 0 -19 -6 -19 -17 0 -13
-48 5 -52 13 -2 12 -7 -8 -30 -17 -20 -27 -25 -38 -18 -15 9 -17 25 -19 138
-1 53 -4 62 -19 62 -14 0 -18 -8 -17 -38 0 -20 4 -43 9 -50 13 -21 -3 -72 -24
-72 -22 0 -44 -25 -35 -40 4 -6 15 -8 26 -5 21 7 25 -5 7 -23 -9 -9 -7 -12 10
-12 19 0 22 -6 22 -36 0 -22 -4 -33 -10 -29 -6 4 -8 15 -5 26 4 10 2 19 -3 19
-6 0 -12 -6 -15 -12 -3 -10 -7 -10 -20 0 -14 12 -20 11 -41 -5 -28 -20 -34
-43 -12 -43 21 0 31 -21 15 -31 -11 -7 -10 -9 3 -9 17 0 38 -28 38 -51 0 -8
-7 -5 -20 6 -19 17 -21 17 -38 2 -10 -10 -24 -17 -30 -17 -7 0 -12 -6 -12 -14
0 -25 12 -46 26 -46 21 0 17 -21 -6 -27 -11 -3 -20 -12 -20 -20 0 -20 -24 -10
-29 12 -1 10 4 22 13 27 9 5 16 13 16 18 0 18 -32 10 -49 -12 l-18 -21 -6 37
c-4 23 -16 45 -31 57 -26 20 -35 49 -16 49 6 0 10 8 10 18 -1 13 -6 11 -25
-11 -14 -15 -25 -35 -25 -43 0 -8 -3 -14 -7 -14 -5 0 -8 16 -8 35 0 39 -17 48
-26 13 -5 -20 -7 -21 -14 -6 -10 25 -45 5 -45 -27 0 -44 -17 -73 -47 -78 -27
-4 -27 -4 -5 -12 32 -11 28 -35 -6 -35 -16 0 -44 -7 -62 -16 l-32 -17 33 -20
c23 -15 34 -18 37 -9 2 7 8 12 14 12 6 0 5 -6 -2 -15 -7 -9 -11 -17 -9 -19 2
-2 42 -30 89 -64 72 -51 87 -66 98 -101 6 -22 12 -50 12 -61 0 -10 9 -35 20
-55 24 -43 25 -59 3 -51 -9 4 -44 9 -77 11 -85 7 -130 24 -307 114 -85 43
-166 81 -180 84 -24 6 -156 92 -404 261 -60 42 -120 83 -133 92 -21 16 -24 15
-62 -10 -22 -14 -44 -26 -49 -26 -5 0 -29 -15 -54 -34 -24 -19 -55 -40 -68
-46 -13 -7 -71 -44 -129 -83 -58 -38 -120 -78 -139 -89 -37 -21 -56 -16 -25 6
16 12 17 17 6 28 -11 11 -16 10 -27 -6 -13 -17 -17 -17 -31 -5 -16 13 -17 12
-11 -10 7 -29 -2 -81 -14 -81 -5 0 -9 18 -9 39 0 53 -16 61 -24 11 -7 -42 -26
-65 -26 -31 0 12 -7 21 -15 21 -8 0 -15 5 -15 10 0 6 -7 10 -15 10 -8 0 -17
14 -21 35 -9 51 -24 43 -24 -12 -1 -42 -2 -46 -13 -28 -11 20 -14 20 -45 5
-18 -9 -30 -19 -26 -23 4 -4 2 -7 -5 -7 -7 0 -11 6 -8 14 6 15 -22 46 -42 46
-6 0 -17 11 -23 25 -13 30 -28 33 -28 6 0 -10 -7 -22 -16 -25 -25 -10 -82 -7
-89 4 -4 7 7 8 32 4 45 -7 67 10 61 48 -2 18 -9 23 -32 23 -24 0 -31 5 -36 25
l-7 25 -4 -25 c-3 -18 -9 -24 -24 -22 -11 2 -40 5 -65 7 -106 9 -142 14 -175
26 -34 13 -45 32 -25 44 5 3 7 12 3 21 -3 8 1 22 10 32 20 23 28 92 10 92 -7
0 -13 5 -13 10 0 6 -4 10 -10 10 -12 0 -13 -32 -1 -45 12 -15 -7 -75 -25 -75
-8 0 -17 7 -20 15 -4 8 -12 15 -20 15 -7 0 -18 8 -24 18 -10 15 -10 15 -5 -4
6 -23 -17 -50 -35 -39 -16 10 -12 -11 5 -25 8 -6 13 -17 12 -23 -1 -7 7 -12
18 -13 35 -1 65 -15 65 -30 0 -16 -26 -19 -35 -4 -7 12 -38 8 -57 -6 -7 -6
-21 -14 -30 -17 -9 -3 -24 -19 -34 -34 -9 -15 -44 -54 -78 -86 l-61 -57 -75 2
-75 3 1 68 c0 37 -4 67 -8 67 -9 0 -12 -21 -9 -67 3 -41 -14 -74 -35 -66 -11
4 -12 9 -5 16 14 14 15 80 1 72 -5 -3 -10 -17 -10 -30 0 -34 -10 -55 -26 -55
-17 0 -19 41 -2 58 9 9 8 15 -7 25 -16 12 -16 18 -7 47 13 35 6 106 -10 116
-6 4 -9 -12 -7 -41 5 -58 -15 -73 -24 -19 -4 24 -1 44 8 58 23 32 18 53 -5 23
-12 -14 -20 -40 -20 -61 0 -35 -13 -48 -23 -23 -3 6 -6 2 -6 -10 -1 -13 -5
-23 -11 -23 -5 0 -10 -4 -10 -10 0 -5 7 -10 16 -10 23 0 11 -24 -14 -28 -16
-3 -22 2 -22 17 0 11 -4 22 -9 25 -17 11 -80 -38 -86 -66 -7 -31 -25 -38 -25
-10 0 14 -2 15 -10 2 -8 -12 -11 -13 -19 -1 -11 16 -45 324 -71 636 -10 117
-29 294 -50 465 -6 47 -26 211 -46 365 -19 154 -37 299 -41 323 -4 28 -2 42 6
42 6 0 11 -4 11 -10 0 -16 30 -12 37 6 4 11 13 13 33 9 17 -4 31 -1 35 5 9 15
-34 61 -54 58 -17 -3 -47 70 -34 82 4 4 42 15 83 24 41 10 127 30 190 45 63
16 149 36 190 45 41 9 129 30 195 46 66 16 163 39 215 51 52 12 122 28 155 35
54 13 137 30 385 81 82 17 169 20 213 8 23 -6 27 -4 27 13 0 15 19 28 84 56
47 20 87 36 90 36 3 0 29 11 58 24 194 87 254 108 343 117 328 32 785 107
1070 174 33 8 94 21 135 31 254 56 664 174 768 220 42 18 66 18 82 -1 7 -8 18
-15 24 -15 6 0 24 -11 40 -25 34 -29 53 -31 103 -10 19 8 51 15 69 15 34 0
128 55 205 119 20 17 41 31 46 31 6 0 44 33 84 73 78 76 119 145 138 227 14
59 14 153 1 145 -5 -3 -10 -21 -10 -38 0 -44 -35 -168 -61 -213 -29 -53 -70
-104 -82 -104 -5 0 -4 8 4 18 24 29 51 83 45 89 -3 3 -24 -12 -46 -34 -45 -46
-49 -44 -20 9 15 29 16 37 6 41 -18 7 -26 -1 -26 -26 0 -13 -5 -17 -16 -13 -9
3 -18 6 -20 6 -9 0 -3 29 11 56 19 37 19 54 0 54 -16 0 -65 -49 -65 -65 0 -16
-61 -50 -93 -52 -15 -1 -48 -15 -74 -32 -55 -37 -132 -67 -196 -76 -40 -6 -47
-5 -47 10 0 9 -9 19 -21 22 -18 5 -20 10 -13 37 4 17 8 58 8 91 1 52 3 60 19
58 14 -1 17 4 14 17 -3 12 4 25 19 37 13 9 26 30 30 46 3 17 15 32 30 37 14 6
42 28 62 50 29 30 41 37 50 28 16 -16 62 27 62 56 -1 30 -24 56 -50 56 -14 0
-36 15 -57 39 -18 22 -46 42 -63 46 -20 4 -27 11 -23 21 7 19 -15 44 -33 37
-17 -6 -18 28 -4 146 6 46 7 87 3 91 -4 4 -37 -3 -72 -16z m-211 -120 c0 -3
-12 -16 -27 -28 -31 -24 -282 -79 -297 -65 -15 14 -44 10 -53 -6 -14 -24 -158
-46 -196 -30 -16 7 -25 15 -21 18 5 3 61 15 124 27 63 12 160 31 215 42 217
45 255 51 255 42z m-2399 -227 c34 -23 41 -49 26 -96 l-12 -36 -114 -17 c-63
-9 -146 -24 -184 -33 l-68 -17 -40 26 c-48 32 -139 38 -139 9 -1 -31 -24 -51
-60 -51 -46 0 -142 -17 -265 -47 -55 -13 -143 -33 -195 -45 -52 -12 -140 -32
-195 -44 -55 -13 -125 -29 -155 -35 -30 -6 -102 -22 -160 -36 -58 -13 -132
-29 -165 -34 -33 -6 -91 -18 -130 -26 -38 -8 -146 -30 -240 -49 -93 -19 -186
-40 -205 -45 -19 -6 -109 -27 -200 -47 -290 -64 -470 -106 -530 -124 -45 -13
-48 -13 -25 3 20 13 81 33 185 61 30 8 93 27 140 41 318 98 383 119 445 140
39 12 97 31 130 40 109 32 593 190 1155 377 l275 92 138 1 c75 1 140 5 143 8
4 3 99 5 213 4 179 -2 209 -4 232 -20z m1593 -6 c-18 -11 -33 -24 -35 -30 -2
-6 -18 -14 -34 -16 -17 -3 -226 -42 -465 -87 -239 -44 -457 -84 -485 -88 -79
-13 -208 -37 -365 -70 -219 -45 -247 -40 -172 33 32 31 50 40 113 52 41 8 106
21 144 29 319 65 502 97 630 111 83 9 186 20 230 26 44 6 114 15 155 20 41 5
118 15 170 23 52 8 106 14 120 15 24 1 24 0 -6 -18z m-2295 -326 c-14 -8 -69
-30 -122 -50 -75 -28 -104 -35 -132 -29 -31 5 -37 3 -41 -13 -4 -13 -20 -25
-45 -32 -21 -7 -39 -15 -39 -20 0 -8 -94 -38 -210 -66 -36 -8 -114 -29 -175
-44 -60 -16 -148 -38 -195 -49 -47 -11 -137 -34 -200 -50 -145 -38 -350 -91
-371 -96 -13 -3 -14 4 -8 45 12 75 30 95 102 109 34 6 123 25 197 40 74 16
194 40 265 54 138 26 400 81 550 115 50 11 124 28 165 37 41 9 116 26 165 39
104 27 130 30 94 10z m2361 -75 c8 -5 12 -11 10 -13 -3 -2 -102 -21 -220 -42
-118 -21 -244 -44 -280 -50 -241 -45 -322 -57 -333 -46 -6 6 -9 13 -6 15 4 4
164 34 379 72 47 8 123 22 170 30 47 8 114 21 150 28 81 17 111 18 130 6z
m-1466 -175 c92 -30 219 -34 346 -9 54 10 86 12 92 6 18 -18 -1 -30 -55 -37
-28 -4 -92 -15 -142 -26 -49 -10 -117 -23 -150 -28 -33 -5 -122 -21 -197 -35
-76 -14 -144 -26 -152 -26 -11 0 -15 17 -18 71 -3 68 -2 72 22 82 78 32 161
32 254 2z m1489 11 c-10 -6 -59 -27 -109 -47 -95 -38 -361 -154 -452 -196 -30
-13 -56 -22 -60 -19 -5 6 68 42 391 191 122 57 189 83 213 82 28 -1 31 -3 17
-11z m-1818 -59 c4 -18 5 -53 3 -77 l-3 -45 -70 -17 c-38 -9 -87 -17 -107 -17
l-38 -1 0 68 c0 37 4 73 8 79 4 7 44 19 87 27 115 20 113 21 120 -17z m2205
-7 c41 -21 41 -21 -85 -44 -49 -9 -193 -37 -318 -62 -126 -25 -233 -44 -238
-42 -5 2 64 34 153 72 112 47 179 70 213 72 28 2 70 7 95 12 75 16 142 13 180
-8z m478 -7 c57 -32 56 -32 51 -37 -4 -5 -258 -51 -444 -81 -44 -7 -145 -25
-225 -39 -80 -14 -221 -40 -315 -56 -93 -17 -192 -35 -220 -40 -27 -5 -104
-18 -170 -30 -182 -33 -228 -40 -232 -36 -2 2 18 11 44 21 27 10 89 35 139 56
50 22 129 46 175 55 46 8 102 19 124 24 22 5 78 15 125 24 47 8 119 22 160 30
287 55 358 69 380 71 14 2 63 13 110 24 47 12 101 21 120 21 19 0 42 5 50 10
27 17 81 10 128 -17z m-1459 -66 c-343 -169 -507 -245 -554 -255 -27 -6 -102
-21 -165 -32 -63 -11 -134 -25 -157 -30 -76 -18 -73 -21 -73 90 0 100 0 101
28 111 15 6 63 17 107 25 44 7 145 25 225 39 80 14 235 41 345 60 110 19 232
41 270 49 128 26 124 17 -26 -57z m-1497 -9 c2 -47 -1 -76 -9 -84 -7 -6 -43
-17 -80 -23 -37 -7 -194 -36 -348 -66 -154 -30 -305 -59 -335 -64 -30 -6 -66
-14 -79 -17 -47 -14 -11 14 46 36 30 11 74 29 97 39 97 44 494 210 526 220 65
21 105 29 142 30 l36 1 4 -72z m-1872 54 c0 -5 -15 -40 -34 -78 l-34 -70 -228
-56 c-126 -31 -267 -63 -314 -73 -47 -9 -101 -21 -120 -26 -35 -9 -475 -115
-517 -124 -17 -4 -23 -1 -24 12 -4 97 -3 119 11 134 14 16 150 51 380 98 52
11 160 34 240 51 80 18 172 38 205 45 175 37 364 79 390 85 42 11 45 11 45 2z
m1414 -67 c-16 -8 -47 -21 -69 -31 -22 -9 -58 -25 -80 -35 -423 -190 -509
-225 -561 -233 l-42 -6 -27 81 c-14 44 -25 82 -23 83 3 2 85 25 168 47 19 5
159 29 310 54 151 25 289 49 305 54 41 11 54 2 19 -14z m3031 -64 c-12 -10
-86 -27 -320 -75 -171 -34 -213 -43 -380 -71 -49 -9 -106 -20 -125 -25 -19 -5
-57 -12 -85 -15 -68 -9 -444 -73 -475 -81 -24 -6 -24 -6 -5 8 26 20 108 45
170 53 28 3 97 15 155 26 58 11 132 24 165 29 123 18 704 123 830 149 55 12
81 13 70 2z m-2077 -148 l-3 -107 -35 -8 c-82 -17 -347 -68 -357 -68 -13 0
-30 66 -39 147 -7 71 -21 62 146 93 63 11 147 27 185 34 116 22 106 31 103
-91z m-1816 -13 l-4 -71 -36 7 c-104 20 -220 50 -223 59 -2 5 10 12 26 16 17
4 71 18 120 32 130 35 121 38 117 -43z m3518 30 c-19 -4 -66 -15 -105 -24 -86
-21 -312 -66 -465 -95 -167 -30 -611 -93 -618 -87 -10 10 46 25 154 40 229 33
566 89 764 128 208 40 240 45 275 46 29 0 29 -1 -5 -8z m-2187 -87 c3 -49 9
-97 12 -108 6 -19 -2 -22 -92 -40 -54 -10 -158 -31 -232 -46 l-135 -27 -115
28 c-122 29 -258 60 -353 81 -32 7 -58 16 -58 21 0 4 6 8 13 8 6 0 73 11 147
25 231 42 581 106 675 125 143 28 131 34 138 -67z m-3223 57 c0 -13 -47 -86
-89 -137 -26 -33 -42 -43 -75 -48 -22 -4 -129 -24 -236 -45 -107 -21 -262 -50
-345 -65 -82 -14 -168 -30 -190 -35 -60 -14 -65 -13 -65 18 0 51 -1 51 215
112 55 16 161 48 235 70 74 23 212 60 305 82 94 22 184 43 200 48 42 11 45 11
45 0z m1561 -74 c46 -13 102 -28 124 -32 39 -7 105 -31 105 -38 0 -1 -93 -2
-207 0 l-208 2 -17 29 c-22 35 -19 46 18 54 56 13 103 9 185 -15z m2149 -70
c0 -26 -18 -32 -165 -56 -38 -6 -90 -15 -115 -21 -47 -10 -101 -1 -107 18 -2
5 22 15 54 21 32 5 112 20 178 32 66 12 122 23 124 26 13 12 31 1 31 -20z
m-1495 -85 c83 -17 188 -39 235 -48 149 -28 156 -30 140 -36 -14 -5 -530 -112
-615 -127 -22 -4 -47 -9 -55 -11 -24 -6 -18 12 45 140 51 102 63 121 80 117
11 -2 88 -18 170 -35z m-1182 23 c3 -4 -7 -25 -22 -48 -29 -41 -31 -42 -123
-60 -51 -9 -100 -15 -108 -11 -23 8 -61 93 -47 102 7 5 71 11 142 14 72 3 135
6 141 7 6 1 13 -1 17 -4z m797 -23 c0 -5 -70 -43 -155 -85 -85 -43 -157 -82
-160 -87 -14 -21 -34 -6 -53 41 l-21 51 22 9 c12 5 63 16 112 25 110 18 227
44 234 50 7 8 21 6 21 -4z m40 -124 c-29 -56 -58 -108 -64 -115 -7 -7 -48 -19
-91 -27 -44 -7 -102 -18 -128 -23 l-49 -10 -15 36 c-19 45 -27 39 199 153 97
48 180 94 184 101 6 9 9 9 12 0 2 -7 -20 -58 -48 -115z m1480 72 c13 -7 13 -8
0 -12 -8 -3 -62 -19 -120 -36 l-105 -31 -70 18 c-82 22 -81 22 100 52 72 12
132 24 134 26 5 5 38 -4 61 -17z m-4463 -54 c-18 -28 -30 -35 -67 -40 -25 -3
-97 -17 -160 -30 -165 -34 -480 -95 -488 -94 -19 1 58 26 188 60 165 42 326
86 450 122 47 14 88 23 92 20 4 -2 -2 -19 -15 -38z m1606 -25 c42 -7 77 -16
77 -20 0 -8 -67 -25 -265 -66 -66 -14 -145 -32 -175 -40 -30 -8 -58 -14 -62
-14 -12 0 -60 89 -55 103 3 7 56 23 123 36 65 13 127 27 138 31 11 4 47 1 80
-5 34 -7 96 -18 139 -25z m902 -26 c17 -39 24 -69 18 -72 -194 -133 -194 -133
-271 -147 -43 -8 -137 -25 -211 -39 -74 -15 -136 -24 -139 -22 -2 3 36 65 84
139 l89 133 155 28 c85 15 166 31 180 36 57 19 65 14 95 -56z m1330 56 c43
-10 38 -11 -220 -60 -22 -4 -132 -27 -245 -50 -327 -67 -385 -78 -390 -74 -10
10 18 39 41 42 38 5 480 91 519 102 19 5 57 12 83 16 26 3 67 12 90 20 46 14
77 15 122 4z m170 -35 c33 -8 72 -14 88 -15 15 0 27 -4 27 -9 0 -13 -216 -76
-410 -120 -52 -12 -117 -27 -145 -33 -39 -9 -222 -60 -447 -125 -26 -8 -22 10
7 37 25 24 33 50 15 50 -6 0 -26 -22 -46 -49 -31 -45 -41 -51 -91 -61 -55 -12
-56 -12 -77 15 l-22 28 26 51 27 51 159 33 c155 31 245 49 389 77 89 16 309
63 355 74 51 13 78 12 145 -4z m-2909 -87 c29 -45 26 -68 -8 -68 -13 0 -47 -7
-76 -14 -52 -14 -53 -14 -61 7 -5 13 -3 39 3 62 11 36 16 41 56 51 25 6 49 9
53 7 4 -3 19 -23 33 -45z m912 34 c-1 -5 -43 -68 -92 -140 -61 -91 -94 -132
-107 -132 -18 0 -17 3 5 53 74 165 102 212 132 218 44 10 66 10 62 1z m-159
-29 c0 -5 -28 -64 -62 -133 l-62 -125 -70 -13 c-106 -20 -235 -42 -285 -48
-42 -6 -46 -4 -60 22 -8 16 -32 58 -53 93 -21 35 -35 67 -30 71 8 7 53 18 298
70 77 16 176 38 220 49 92 22 105 24 104 14z m-2810 -28 c-3 -2 -74 -24 -159
-49 -85 -24 -200 -61 -255 -81 -106 -39 -213 -67 -227 -59 -4 3 -8 16 -8 29 0
17 7 26 23 30 43 10 203 46 287 65 207 46 275 61 279 66 2 2 18 4 34 4 17 0
28 -2 26 -5z m3793 -117 c13 -21 11 -29 -21 -88 -20 -36 -43 -66 -51 -67 -13
-2 -46 57 -78 138 -3 8 49 25 98 33 14 2 28 4 31 5 4 0 13 -9 21 -21z m-1603
-87 c28 -49 51 -93 51 -98 0 -5 -28 -15 -61 -21 -60 -11 -63 -10 -93 15 -70
58 -157 145 -151 151 6 6 157 40 186 41 11 1 35 -32 68 -88z m1406 12 c46
-101 47 -97 -42 -127 -43 -14 -123 -37 -178 -52 -55 -15 -167 -44 -250 -66
-82 -22 -178 -47 -211 -54 -34 -8 -74 -18 -89 -24 -51 -19 -37 -2 45 57 46 32
106 75 134 96 28 20 69 49 91 64 22 14 63 43 91 64 42 32 63 40 124 49 41 6
90 15 110 20 147 39 144 39 175 -27z m-4365 19 c0 -4 -25 -20 -55 -35 -56 -27
-500 -125 -513 -113 -3 4 -1 11 5 17 10 10 209 60 408 104 44 9 91 21 105 25
33 11 50 12 50 2z m2063 -4 c15 -7 27 -15 27 -18 0 -3 -51 -15 -113 -28 -186
-39 -169 -39 -200 7 -15 22 -27 43 -27 46 0 11 287 5 313 -7z m605 -26 c2 -12
-1 -22 -7 -22 -16 0 -13 -33 4 -56 13 -16 16 -17 25 -4 9 13 11 13 20 0 8 -13
15 -80 8 -80 -2 0 -27 -3 -56 -6 -53 -6 -112 9 -112 29 0 10 65 132 83 155 14
18 31 10 35 -16z m1222 -21 c0 -8 -62 -53 -345 -253 -102 -72 -154 -100 -168
-91 -6 4 142 231 180 274 8 10 35 20 61 24 67 9 246 46 251 51 8 7 21 4 21 -5z
m-2525 -47 c60 -8 113 -18 117 -20 10 -7 10 -34 1 -34 -5 0 -51 -9 -103 -20
-52 -12 -129 -27 -170 -35 -41 -8 -92 -19 -113 -25 -35 -10 -42 -9 -85 20 -26
16 -59 38 -74 48 -16 9 -28 22 -28 27 0 6 55 19 121 29 67 10 133 22 148 26
14 5 37 7 51 4 14 -2 74 -11 135 -20z m2075 7 c0 -23 -4 -24 -125 -46 -49 -9
-108 -20 -130 -25 -22 -5 -49 -11 -60 -14 -13 -2 -9 -4 11 -5 32 -1 239 35
254 44 27 17 13 -29 -44 -148 -50 -104 -70 -136 -88 -140 -29 -8 -27 -9 -86
98 -27 50 -61 111 -75 136 l-26 47 32 6 c39 9 114 22 226 41 46 8 86 16 89 19
11 12 22 5 22 -13z m-1142 -17 c34 -15 62 -30 62 -34 0 -4 -26 -27 -57 -51
-32 -23 -60 -45 -63 -49 -18 -21 -68 -39 -150 -54 -52 -9 -105 -19 -117 -21
-17 -4 -30 9 -73 76 -34 53 -48 84 -41 88 6 4 80 20 163 35 84 15 158 29 163
31 26 9 55 3 113 -21z m-439 -134 c34 -54 47 -82 38 -85 -31 -12 -203 -32
-210 -25 -5 4 2 23 15 43 13 19 38 61 57 91 18 31 37 56 41 56 5 0 31 -36 59
-80z m-115 61 c3 -5 -1 -14 -9 -21 -8 -7 -15 -16 -15 -21 0 -5 -20 -40 -44
-78 -40 -61 -49 -69 -83 -75 -114 -18 -123 -18 -123 -7 0 23 33 146 42 156 6
7 161 45 220 54 4 1 9 -3 12 -8z m2832 -55 c-3 -11 -14 -68 -25 -126 -22 -113
-31 -154 -55 -270 -9 -41 -32 -151 -51 -245 -18 -93 -50 -246 -71 -340 -20
-93 -41 -192 -47 -219 -8 -41 -21 -60 -72 -110 -75 -75 -97 -122 -120 -251 -9
-55 -26 -145 -37 -200 -11 -55 -26 -138 -33 -185 -12 -78 -26 -160 -44 -249
-7 -39 -28 -52 -38 -24 -3 10 -10 20 -14 23 -4 3 -10 22 -14 42 -7 37 -7 37
31 40 52 4 58 28 7 29 l-38 2 35 7 c35 7 35 7 -11 9 -42 1 -46 3 -59 36 -8 21
-26 42 -44 50 -36 18 -43 14 -16 -10 11 -10 20 -30 20 -44 0 -18 3 -22 9 -13
7 11 9 11 14 -2 3 -8 2 -18 -3 -21 -15 -9 -12 -25 4 -25 24 0 27 -16 6 -37
-10 -12 -22 -37 -25 -56 -7 -35 -34 -67 -69 -80 -10 -4 -133 -7 -272 -6 -296
1 -294 1 -288 10 6 11 -14 97 -33 139 -21 45 -89 110 -115 110 -25 0 -88 29
-88 41 0 5 7 9 16 9 8 0 12 5 9 11 -4 6 -13 8 -21 5 -7 -3 -16 -1 -19 3 -6 10
-56 8 -73 -3 -7 -4 -12 -2 -12 3 0 16 -26 13 -60 -4 -38 -20 -41 -50 -5 -41
27 7 33 -5 12 -22 -8 -7 -112 -13 -282 -16 -333 -7 -511 -18 -507 -31 1 -6 35
-9 83 -7 65 3 80 1 77 -10 -3 -7 -18 -14 -34 -16 -97 -8 -134 -15 -134 -24 0
-6 24 -9 65 -6 49 3 65 1 65 -9 0 -9 -20 -13 -74 -13 -76 0 -109 -14 -59 -24
16 -3 45 -4 66 -2 20 2 39 1 41 -3 3 -4 -2 -28 -11 -54 l-15 -47 -137 2 c-75
1 -141 -1 -147 -4 -14 -9 -92 -9 -246 0 -110 6 -129 10 -143 27 -12 16 -14 17
-9 3 7 -20 -20 -26 -32 -7 -5 8 -10 6 -16 -5 -13 -24 -29 -9 -22 20 5 18 2 24
-10 24 -9 0 -15 -8 -14 -17 3 -42 -3 -63 -18 -63 -11 0 -15 9 -13 33 3 50 0
81 -8 73 -15 -15 -17 -111 -3 -135 6 -10 10 -11 10 -3 0 6 5 12 11 12 6 0 10
-36 9 -102 -2 -123 -1 -143 5 -137 2 3 7 56 10 119 4 63 8 121 11 128 3 11 32
12 146 5 79 -4 189 -6 246 -4 l102 3 0 -109 c0 -80 -4 -114 -15 -129 -13 -17
-14 -7 -12 96 l2 115 -52 3 c-29 2 -53 0 -53 -3 0 -4 8 -27 19 -53 50 -125 61
-156 61 -178 0 -17 4 -22 15 -18 8 4 15 1 15 -5 0 -6 -5 -11 -10 -11 -14 0
-55 -38 -48 -45 12 -12 235 -37 399 -44 l176 -8 87 -42 c48 -23 90 -49 93 -57
3 -7 11 -14 19 -14 16 0 20 -50 5 -66 -5 -5 -6 -44 -1 -89 9 -100 37 -155 75
-147 30 5 30 5 4 59 -20 41 -20 45 -5 91 21 62 77 112 125 112 11 0 22 4 26 9
3 6 27 13 53 16 26 4 64 13 85 21 20 8 44 14 52 14 27 0 16 -19 -19 -34 -63
-26 -118 -125 -116 -205 4 -116 -6 -159 -32 -133 -10 10 -10 14 0 21 8 5 12
19 10 32 l-5 24 -10 -25 c-10 -22 -12 -23 -18 -7 -5 13 -1 23 14 33 13 10 21
26 21 44 0 23 -3 27 -20 23 -11 -3 -20 -12 -20 -19 0 -8 -9 -23 -20 -34 -11
-11 -20 -26 -20 -33 0 -13 -55 -41 -67 -34 -17 10 -44 -22 -45 -53 -1 -24 9
-41 43 -76 24 -24 49 -44 56 -44 6 0 16 -8 22 -17 9 -17 11 -17 25 2 8 11 16
26 16 33 0 6 5 12 10 12 6 0 10 -24 10 -54 0 -36 5 -58 15 -66 27 -22 130 -8
435 60 193 44 193 43 207 24 7 -10 13 -23 13 -29 0 -25 -261 -65 -426 -65 -67
0 -76 -3 -96 -25 -12 -14 -27 -25 -33 -25 -12 0 -45 -36 -45 -50 0 -20 -40
-29 -118 -27 -85 3 -115 17 -132 62 -4 11 -38 62 -74 112 -54 76 -65 98 -61
120 4 22 3 24 -3 8 -8 -18 -11 -17 -27 15 -10 19 -29 49 -41 66 -13 17 -24 34
-24 38 0 5 -8 20 -19 34 -10 15 -35 59 -55 97 -20 39 -52 86 -71 106 -34 35
-36 36 -172 52 -76 9 -158 17 -183 17 -42 0 -158 11 -310 30 -105 12 -133 -9
-204 -155 -13 -28 -38 -63 -56 -78 -17 -15 -28 -33 -24 -38 3 -6 -8 -24 -25
-39 -17 -16 -31 -34 -31 -40 0 -17 -58 -72 -64 -61 -3 4 6 17 19 27 14 10 25
29 25 41 0 28 38 103 56 110 14 5 20 43 7 43 -9 0 -173 -168 -173 -178 0 -4
-9 -13 -20 -20 -13 -8 -20 -8 -20 -2 0 7 -6 7 -20 0 -11 -6 -20 -17 -20 -26 0
-23 -22 -26 -106 -14 -44 6 -99 13 -123 15 -23 2 -52 11 -62 21 -12 11 -39 18
-76 20 -79 3 -99 11 -113 45 -12 28 -30 40 -30 19 0 -5 -5 -10 -11 -10 -5 0
-8 4 -5 9 4 5 2 11 -3 13 -5 1 -12 32 -16 68 -6 60 -5 67 17 88 12 12 55 52
94 90 66 62 114 129 114 159 0 7 9 13 19 13 11 0 23 5 26 10 4 6 -5 10 -21 10
l-27 0 7 61 c3 34 11 68 17 76 9 11 8 17 -7 28 -10 8 -14 15 -8 15 16 0 19
197 3 216 -15 19 -39 18 -39 -1 0 -8 -5 -15 -11 -15 -5 0 -7 5 -4 10 3 6 -3
10 -14 10 -11 0 -22 -9 -26 -19 -3 -11 -25 -27 -51 -37 -25 -9 -49 -25 -55
-35 -5 -10 -16 -16 -24 -13 -9 4 -16 -3 -21 -20 -5 -22 -8 -23 -25 -13 -17 10
-19 20 -14 62 3 28 8 88 10 135 5 86 18 143 39 170 26 33 38 78 40 146 1 52 5
75 18 88 10 10 18 23 17 29 0 9 -2 8 -6 0 -2 -7 -11 -13 -19 -13 -12 0 -13 11
-8 57 3 32 10 66 16 76 18 35 0 28 -43 -18 -26 -27 -52 -45 -65 -45 -13 0 -26
-4 -29 -10 -3 -5 -17 -10 -31 -10 -13 0 -24 -4 -24 -10 0 -5 7 -10 15 -10 18
0 19 -12 3 -28 -8 -8 -15 -9 -25 -1 -17 15 -16 -1 1 -24 8 -10 20 -17 28 -15
7 2 15 -1 16 -7 2 -5 -17 -13 -40 -16 -37 -6 -47 -3 -69 18 -25 23 -28 23 -37
7 -14 -25 -72 -27 -72 -2 0 12 -7 18 -24 18 -14 0 -27 -4 -31 -10 -3 -5 -12
-7 -20 -3 -9 3 -22 -1 -31 -8 -20 -16 -33 2 -35 46 0 17 -3 39 -5 50 -7 28 -7
35 7 82 12 38 11 44 -6 63 -11 12 -15 24 -9 28 5 5 25 20 45 35 21 14 47 47
59 72 26 53 22 111 -13 185 -12 27 -21 67 -22 101 0 32 -7 64 -14 73 -8 9 -12
18 -10 21 4 4 175 46 489 120 85 21 207 49 270 65 63 15 142 33 175 40 33 7
96 21 140 32 44 11 136 33 205 48 306 69 414 93 545 124 77 19 176 41 220 51
44 9 91 20 105 25 14 5 79 20 145 35 66 15 171 40 234 56 63 16 116 28 117 26
1 -1 -2 -26 -7 -56 -4 -30 -6 -58 -3 -63 4 -5 -3 -16 -13 -23 -17 -12 -19 -23
-15 -99 l4 -86 -121 5 c-67 2 -127 8 -134 12 -6 4 -64 11 -127 14 -63 3 -159
12 -213 19 -119 17 -131 10 -132 -72 0 -45 3 -54 24 -64 13 -7 30 -26 37 -43
10 -24 18 -30 39 -29 20 2 28 9 32 31 4 19 10 26 20 23 8 -4 26 -6 39 -6 21 0
24 -4 19 -22 -6 -21 -4 -21 19 4 26 29 41 24 29 -9 -6 -16 -5 -16 11 -4 15 12
19 12 32 -7 10 -14 26 -22 44 -22 30 0 47 14 30 25 -24 15 5 25 63 21 78 -4
92 -11 107 -47 9 -20 19 -29 36 -29 13 0 25 6 25 13 1 6 2 19 3 27 1 16 36 20
159 19 37 0 67 3 68 8 0 4 1 74 2 155 1 105 -1 149 -10 152 -8 3 -9 24 -6 65
4 42 2 65 -7 76 -7 9 -11 18 -8 21 3 3 91 25 194 49 104 25 214 52 244 60 231
63 1329 330 1343 326 13 -3 17 -10 13 -25z m-1596 -61 c36 -35 81 -76 100 -93
52 -46 25 -41 -115 23 -27 12 -83 37 -123 55 -83 38 -93 62 -28 68 21 2 48 7
60 12 27 10 28 9 106 -65z m-1515 48 c-4 -10 -14 -47 -23 -82 -16 -62 -19 -65
-57 -77 -39 -13 -39 -13 -7 -10 36 3 49 -8 33 -27 -5 -7 -10 -22 -10 -32 1
-11 -7 -45 -16 -75 -9 -30 -27 -95 -41 -145 -33 -124 -59 -198 -70 -202 -5 -1
-18 25 -28 60 -10 34 -31 100 -46 147 -25 77 -43 147 -45 176 0 6 -6 19 -14
28 -7 8 -11 22 -8 30 3 7 2 17 -3 22 -4 5 -15 33 -25 63 -15 45 -15 55 -4 65
8 7 61 21 119 31 58 10 130 24 160 31 80 18 94 18 85 -3z m3170 0 c-3 -10 -17
-74 -31 -143 -59 -307 -171 -842 -220 -1055 -8 -33 -19 -82 -24 -110 -6 -27
-15 -54 -21 -60 -9 -7 -10 -1 -5 25 4 19 10 46 12 60 3 14 10 43 16 65 22 82
74 320 113 520 45 234 77 389 90 450 9 39 22 106 30 149 18 98 24 116 37 116
6 0 7 -8 3 -17z m-2175 -12 c0 -15 -23 -28 -60 -35 -19 -3 -44 -8 -55 -10 -11
-3 -42 -8 -70 -12 -27 -4 -57 -11 -65 -16 -10 -6 -4 -7 20 -4 19 3 70 10 113
17 43 6 80 9 82 7 2 -2 -40 -83 -93 -180 -80 -145 -102 -179 -127 -189 -16 -7
-33 -14 -37 -16 -3 -2 -36 51 -73 119 -37 68 -69 126 -71 129 -4 8 116 95 144
103 12 4 22 13 22 21 0 20 40 41 95 49 28 4 73 11 100 15 73 12 75 12 75 2z
m240 -29 c40 -20 50 -50 24 -69 -17 -12 -17 -14 0 -26 16 -12 16 -19 5 -94
l-13 -81 -213 -53 c-117 -29 -215 -50 -218 -47 -3 3 11 34 31 69 20 35 56 100
78 144 71 136 86 155 126 156 19 0 46 5 60 9 41 13 83 10 120 -8z m-1986 -20
c3 -5 -72 -25 -167 -45 l-172 -36 -52 36 c-29 20 -53 40 -53 45 0 10 437 11
444 0z m2192 -71 c60 -27 124 -55 142 -62 33 -14 41 -27 20 -33 -67 -19 -240
-57 -243 -54 -7 7 -38 122 -42 161 -3 20 -1 37 5 37 5 0 58 -22 118 -49z
m-969 22 c2 -6 -10 -14 -26 -18 -17 -4 -31 -11 -31 -16 0 -11 8 -11 35 1 24 9
55 -14 55 -41 0 -10 -12 -26 -27 -36 -16 -10 -117 -85 -227 -168 -109 -82
-217 -163 -240 -179 -22 -16 -54 -39 -69 -52 -16 -13 -33 -22 -37 -19 -11 7 2
31 144 265 97 160 116 185 139 188 15 2 27 7 27 12 0 5 -6 7 -14 4 -8 -3 -17
-1 -21 5 -10 17 20 41 52 42 15 0 60 7 98 14 81 16 137 15 142 -2z m-1072 -24
c4 -11 5 -22 3 -24 -68 -61 -116 -95 -137 -95 -21 0 -23 -2 -11 -10 13 -9 12
-13 -9 -30 -13 -11 -35 -20 -50 -20 -19 0 -22 -3 -12 -9 7 -5 10 -14 7 -20
-10 -16 -26 -13 -26 4 0 9 -6 15 -12 14 -19 -2 -58 12 -58 21 0 4 10 12 23 18
19 11 17 11 -18 7 -32 -4 -50 1 -93 25 -29 17 -52 37 -49 43 2 7 71 27 153 44
82 18 167 37 189 42 69 15 93 13 100 -10z m715 -67 c0 -5 -23 -47 -51 -93 -29
-46 -81 -133 -116 -192 -36 -60 -67 -106 -70 -104 -2 3 16 74 40 158 25 85 48
168 51 186 6 28 12 32 54 40 68 13 92 14 92 5z m-1230 -24 c0 -7 -12 -29 -26
-50 -22 -31 -34 -38 -73 -44 -25 -3 -62 -10 -81 -14 -49 -11 1 -12 58 -1 49
10 61 0 33 -28 -10 -10 -22 -27 -25 -38 -4 -10 -15 -29 -25 -43 l-19 -24 -21
24 c-23 29 -26 46 -8 54 6 3 4 4 -7 3 -10 -1 -23 6 -30 17 -6 10 -21 29 -33
42 -26 26 -29 39 -11 50 9 6 222 57 261 63 4 0 7 -4 7 -11z m755 -14 c0 -10 5
-23 11 -29 6 -5 18 -35 27 -65 8 -30 29 -104 47 -163 17 -60 30 -111 27 -113
-7 -7 -213 315 -209 328 1 5 -5 11 -13 14 -32 13 -14 33 38 42 64 12 72 10 72
-14z m952 -91 c58 -107 69 -133 59 -133 -2 0 -60 -13 -128 -29 -363 -86 -465
-110 -480 -116 -32 -13 -20 20 15 40 17 10 76 53 131 94 175 134 331 250 338
250 3 1 33 -47 65 -106z m-1111 73 c0 0 19 -28 41 -61 73 -109 223 -343 223
-349 0 -3 -7 -6 -15 -6 -8 0 -15 5 -15 10 0 6 -5 10 -12 10 -7 0 -81 41 -165
90 -84 50 -156 90 -161 90 -5 0 -15 7 -22 15 -11 13 -8 23 18 61 18 24 32 51
32 59 0 22 29 45 56 45 14 0 22 4 19 10 -9 15 -61 12 -75 -5 -6 -8 -9 -18 -6
-24 3 -5 0 -11 -7 -14 -9 -4 -37 -50 -64 -105 0 -2 -24 9 -53 23 l-52 26 23
26 c13 14 39 32 57 40 18 7 30 18 27 23 -3 5 9 19 27 30 26 16 43 19 78 14 25
-4 45 -7 46 -8z m3761 -10 c7 -6 23 -102 38 -226 14 -118 37 -303 50 -410 13
-107 27 -235 31 -285 l6 -90 -45 -33 c-31 -22 -54 -50 -74 -90 -26 -54 -28
-66 -31 -210 l-4 -154 -171 7 c-238 10 -223 7 -219 41 2 16 25 119 52 229 70
288 88 363 121 520 41 197 108 526 125 614 21 117 19 113 67 106 23 -4 48 -12
54 -19z m-6777 -45 c0 -32 14 -41 65 -41 20 0 35 -6 39 -15 3 -8 10 -15 16
-15 5 0 10 7 10 15 0 24 19 17 26 -9 6 -27 -2 -49 -16 -41 -5 3 -44 8 -87 11
-127 8 -123 6 -123 69 l0 55 35 0 c32 0 35 -3 35 -29z m530 9 c56 0 61 -8 42
-67 -9 -28 -19 -54 -23 -57 -3 -3 -32 -7 -66 -10 -57 -4 -61 -3 -72 20 -19 43
-14 80 17 103 15 12 36 19 47 16 11 -3 36 -5 55 -5z m2063 -20 c14 -11 31 -20
39 -20 7 0 22 -7 33 -15 17 -13 17 -17 5 -29 -15 -14 -145 -126 -240 -205
l-53 -45 -16 22 c-9 12 -28 39 -43 59 -29 37 -35 58 -18 68 5 3 26 30 46 60
29 45 41 55 64 55 16 0 32 5 36 11 5 8 -1 10 -20 7 -17 -3 -26 -1 -26 7 0 22
24 34 75 38 28 2 60 4 71 5 12 1 33 -7 47 -18z m-443 -45 c7 -9 10 -18 6 -22
-3 -3 3 -11 15 -17 11 -6 31 -30 44 -52 l24 -41 -101 -152 c-100 -150 -102
-152 -132 -145 -17 3 -32 7 -33 8 -3 3 16 60 33 101 16 38 85 236 88 253 1 7
8 18 14 24 7 7 12 22 12 35 0 27 12 30 30 8z m621 -52 c19 -9 43 -25 53 -35
11 -10 23 -18 26 -18 17 0 360 -200 360 -210 0 -7 -152 -46 -486 -126 -33 -7
-69 -14 -79 -14 -17 0 -17 1 -2 18 10 10 17 29 17 41 0 22 -1 21 -23 -6 -13
-15 -26 -36 -30 -46 -7 -18 -46 -37 -75 -37 -14 1 -44 37 -87 108 -5 9 -18 29
-27 43 l-17 26 57 46 c31 25 104 86 162 136 57 50 107 91 111 91 3 0 21 -8 40
-17z m-2636 -37 c40 -3 40 -3 61 -67 12 -35 29 -93 39 -129 10 -36 32 -110 50
-165 48 -149 47 -147 21 -179 l-23 -29 -17 24 c-26 37 -234 387 -263 444 -14
28 -34 61 -44 74 -11 13 -19 28 -19 32 0 5 35 6 78 3 42 -3 95 -7 117 -8z
m1585 -26 c20 -20 22 -33 24 -192 1 -76 -4 -82 -65 -72 -34 6 -46 15 -79 63
-22 31 -57 81 -79 111 -69 94 -70 87 4 95 36 4 78 5 93 2 15 -3 34 -2 42 4 23
14 38 11 60 -11z m-764 -28 c9 -15 60 -85 112 -155 92 -124 94 -130 84 -160
-6 -18 -26 -75 -45 -127 -19 -52 -38 -114 -42 -137 -9 -54 -20 -62 -91 -68
-32 -2 -115 -9 -183 -15 -68 -5 -125 -9 -125 -8 -20 51 -59 118 -68 119 -7 1
-22 2 -33 3 -15 1 -23 13 -33 56 -7 30 -19 74 -26 98 -11 35 -11 48 0 80 7 20
13 46 14 57 0 22 83 133 106 142 8 3 14 10 14 17 1 6 19 31 41 56 l40 45 -3
-40 c-2 -23 -8 -41 -15 -41 -30 -3 -33 -4 -33 -13 0 -12 71 -11 87 1 8 6 8 19
1 44 -5 20 -7 39 -3 42 6 6 102 23 161 29 14 2 28 -7 40 -25z m240 -37 l72
-65 -34 -57 c-19 -31 -34 -60 -34 -65 0 -23 -24 3 -108 117 -51 69 -92 127
-92 130 0 3 28 5 61 5 l62 0 73 -65z m358 -175 c64 -85 116 -158 116 -162 0
-15 -16 -7 -50 25 -20 17 -51 45 -70 60 -75 62 -190 179 -190 194 0 9 10 32
22 51 l22 36 18 -25 c9 -13 69 -94 132 -179z m760 124 c21 -31 34 -59 30 -64
-38 -36 -271 -230 -276 -230 -23 0 0 56 55 135 34 50 80 118 102 152 22 35 42
63 45 63 3 0 22 -25 44 -56z m-947 -106 c44 -47 153 -209 153 -228 0 -9 -10
-11 -31 -6 -17 3 -62 6 -99 6 l-67 0 -42 55 c-22 31 -41 60 -41 66 0 13 73
149 80 149 3 0 24 -19 47 -42z m1070 -75 c29 -43 49 -80 45 -84 -7 -7 -113
-34 -290 -74 -62 -14 -104 -19 -108 -13 -3 5 -4 10 -3 11 22 12 56 38 165 130
70 59 130 107 133 107 3 0 30 -35 58 -77z m-1153 -183 c36 -49 66 -91 66 -94
0 -8 -135 -54 -179 -61 l-43 -7 7 33 c15 76 67 219 79 219 3 0 34 -40 70 -90z
m-325 -356 c2 -2 -2 -38 -9 -80 -6 -43 -13 -163 -13 -268 -2 -192 -2 -193 -36
-187 -5 0 -16 17 -25 36 -9 19 -21 35 -26 35 -6 0 -10 7 -10 15 0 8 -4 15 -9
15 -5 0 -17 3 -25 6 -12 5 -15 2 -10 -10 3 -8 11 -14 17 -13 8 1 11 -12 9 -39
-3 -35 1 -46 23 -67 17 -15 35 -23 46 -20 25 7 52 -4 44 -17 -5 -8 -11 -8 -20
0 -9 7 -16 6 -24 -4 -10 -12 -8 -21 11 -48 12 -18 24 -35 26 -38 2 -2 72 -5
156 -6 l153 -1 -16 41 c-18 47 -56 90 -87 100 -28 8 -34 45 -34 206 0 92 -3
120 -11 107 -9 -15 -15 -253 -7 -287 2 -7 -3 -15 -9 -17 -7 -3 -13 2 -13 11 0
9 -4 16 -10 16 -5 0 -10 -6 -10 -14 0 -8 -10 -14 -22 -13 -13 0 -30 -2 -38 -4
-13 -3 -15 13 -18 101 -5 198 -2 315 10 383 l13 68 34 -3 c33 -3 35 -5 48 -63
7 -33 16 -81 19 -107 5 -34 10 -45 20 -41 8 3 17 -3 21 -13 12 -33 80 -120
107 -137 14 -10 26 -21 26 -26 0 -9 -72 -105 -83 -109 -11 -6 34 -38 63 -45
18 -4 31 0 47 17 16 16 39 25 80 30 61 8 72 9 251 21 l112 8 0 -41 c0 -33 -4
-42 -17 -42 -14 0 -13 -3 5 -16 52 -36 -11 -42 -83 -8 -19 9 -40 14 -47 12 -7
-3 -18 2 -24 10 -6 8 -16 12 -22 8 -17 -10 -15 -26 3 -26 8 0 15 -4 15 -10 0
-5 -7 -10 -15 -10 -15 0 -17 -10 -17 -75 0 -111 1 -118 23 -112 33 9 50 -2 43
-28 -4 -16 1 -28 20 -43 26 -20 35 -52 16 -52 -5 0 -10 5 -10 10 0 6 -6 10
-12 10 -7 -1 -3 -9 10 -19 25 -22 30 -46 6 -37 -9 3 -25 6 -37 7 -12 0 -16 3
-9 6 6 2 12 9 12 14 0 13 -44 11 -57 -2 -13 -13 -47 -4 -38 10 3 5 6 75 7 156
1 132 -1 147 -18 160 -26 20 -34 18 -34 -7 0 -12 -7 -29 -16 -39 -14 -16 -13
-17 11 -15 22 1 26 5 22 24 -2 12 0 25 4 28 5 3 10 -5 10 -18 1 -13 3 -40 4
-60 2 -42 -12 -50 -58 -35 -36 12 -57 3 -57 -25 -1 -20 -2 -19 -14 7 -14 32
-66 75 -66 54 0 -13 38 -68 62 -89 18 -16 21 -28 19 -74 l-1 -28 -19 23 c-18
22 -20 22 -26 6 -9 -21 15 -89 32 -94 6 -2 13 4 16 14 3 11 5 7 6 -11 1 -36
-33 -76 -66 -76 -13 0 -23 -5 -23 -11 0 -6 7 -9 15 -5 12 4 14 0 9 -22 -4 -15
-11 -35 -15 -44 -5 -9 -9 -26 -9 -37 0 -20 -36 -48 -48 -37 -3 4 0 22 7 42 7
20 10 38 8 41 -10 9 -27 -8 -27 -28 0 -21 -16 -26 -23 -6 -2 6 -8 9 -12 4 -5
-4 0 -14 11 -22 16 -13 17 -16 4 -25 -8 -5 -23 -10 -32 -10 -9 0 -20 -4 -23
-10 -3 -5 -24 -10 -45 -10 -30 0 -38 3 -34 14 4 9 -3 16 -18 19 -21 4 -20 4 4
6 21 1 26 5 21 17 -3 10 -13 14 -25 11 -12 -4 -18 -1 -15 6 2 7 14 11 25 10
27 -3 20 21 -10 34 -13 6 -18 12 -11 16 6 4 21 -2 34 -12 35 -27 56 -15 25 14
-33 31 -25 55 19 55 64 0 95 11 95 34 0 34 -14 47 -58 51 -57 6 -104 31 -98
53 11 34 -9 46 -73 43 l-61 -2 -2 48 c-1 47 -1 47 -5 8 -3 -22 -8 -44 -12 -48
-10 -10 -51 39 -51 60 0 8 -12 30 -26 48 -16 22 -23 41 -20 53 4 11 -2 29 -14
45 -24 30 -26 47 -4 47 11 0 14 5 10 16 -3 9 -6 20 -6 25 0 16 -18 10 -24 -8
-3 -10 -4 -3 -2 15 2 21 -2 32 -11 32 -7 0 -13 6 -13 13 0 6 -3 29 -6 50 -6
32 -4 37 12 38 17 0 16 1 -2 9 -17 7 -24 21 -29 62 -4 29 -11 58 -15 63 -4 6
-10 46 -14 90 -4 44 -9 97 -12 119 l-6 38 139 -7 c76 -4 140 -9 142 -11z
m-509 -14 c13 -11 29 -20 36 -20 7 0 16 -10 20 -22 4 -13 19 -34 34 -48 25
-24 27 -32 34 -145 4 -66 9 -153 12 -193 4 -67 3 -72 -13 -63 -76 38 -102 39
-68 1 12 -14 16 -28 12 -49 -6 -30 7 -53 16 -29 3 10 8 10 21 -1 23 -19 45
-74 52 -130 9 -73 15 -207 8 -193 -9 19 -27 14 -21 -7 4 -17 2 -17 -24 -4 -16
8 -29 19 -29 24 0 16 -24 36 -37 32 -7 -3 -16 18 -22 54 -14 70 -37 120 -60
126 -17 4 -23 36 -66 347 -7 52 -16 107 -20 123 -6 24 -5 27 19 27 14 0 26 5
26 11 0 22 -21 49 -39 49 -14 0 -20 10 -25 46 -11 86 -13 84 52 84 45 0 65 -5
82 -20z m998 13 c180 -6 181 -6 166 -27 -16 -24 -19 -89 -4 -116 9 -17 4 -23
-37 -45 -64 -34 -100 -55 -152 -90 -94 -65 -83 -63 -139 -22 -77 57 -152 191
-152 272 l0 35 68 0 c38 0 150 -3 250 -7z m-793 -114 c6 -35 27 -241 26 -263
0 -26 -6 -29 -29 -15 -15 9 -21 28 -25 78 -4 36 -9 77 -12 91 -10 50 -8 106 6
127 15 25 28 18 34 -18z m1063 -103 c5 -24 -52 -82 -109 -111 -43 -22 -169
-45 -169 -31 0 8 165 116 177 116 5 0 24 11 43 24 39 28 53 28 58 2z m10002
-78 c0 -7 5 -6 14 1 8 7 35 9 72 5 32 -3 107 -7 166 -7 66 -1 107 -6 105 -12
-1 -5 -33 -10 -72 -10 l-70 0 -5 -95 c-3 -59 -11 -103 -20 -117 -13 -20 -13
-24 5 -37 16 -11 17 -17 8 -27 -10 -10 -15 -9 -28 1 -8 7 -27 10 -43 7 -16 -3
-35 0 -47 9 -17 13 -18 17 -7 35 18 28 8 35 -24 20 -28 -12 -48 -6 -25 8 10 7
9 9 -3 14 -18 7 -11 37 9 37 8 0 17 10 21 23 3 12 15 34 25 49 21 29 23 38 11
38 -5 0 -14 -11 -21 -24 -8 -13 -33 -34 -56 -46 -24 -12 -48 -32 -53 -44 -8
-16 -11 -17 -11 -4 -1 9 6 24 14 32 9 8 15 28 13 43 -2 16 2 28 9 28 18 0 36
22 28 35 -5 8 -10 8 -20 0 -9 -8 -14 -5 -18 10 -3 12 -11 20 -19 19 -42 -5
-128 2 -123 11 8 14 165 11 165 -2z m-11426 -220 c3 -18 10 -69 16 -113 6 -44
13 -95 16 -113 4 -23 1 -34 -10 -38 -8 -3 -18 -19 -21 -35 -5 -20 -13 -29 -26
-29 -21 0 -23 8 -9 30 5 9 5 19 -2 27 -6 7 -8 27 -4 45 3 17 3 28 -1 24 -4 -4
-10 -31 -13 -59 -4 -37 -9 -52 -20 -52 -12 0 -14 10 -12 45 4 72 23 183 35
205 6 11 10 24 9 29 -4 13 19 66 29 66 4 0 10 -15 13 -32z m6452 -20 c3 -5 3
-24 0 -42 -6 -32 -8 -33 -73 -42 -60 -8 -68 -12 -84 -40 -17 -30 -17 -33 0
-51 31 -33 94 -156 77 -150 -11 5 -16 1 -16 -13 0 -14 -7 -20 -22 -20 -13 0
-54 -3 -93 -7 -66 -6 -69 -5 -55 11 13 16 12 18 -10 14 -14 -1 -25 -10 -25
-18 0 -9 -11 -16 -27 -18 -29 -3 -31 3 -43 103 -3 28 -10 79 -15 115 -5 36
-12 89 -15 118 l-6 53 201 -2 c113 -1 203 -6 206 -11z m1001 -32 c-5 -11 0
-12 24 -2 23 8 32 8 38 -2 4 -7 15 -10 24 -6 10 3 17 1 17 -5 0 -6 -6 -11 -14
-11 -19 0 -30 -27 -30 -79 -1 -26 -6 -46 -13 -48 -9 -3 -13 6 -13 26 0 30 -2
31 -41 31 -36 0 -40 -2 -37 -22 3 -21 -1 -23 -51 -26 -74 -4 -89 2 -66 28 10
11 37 31 61 45 23 14 46 34 49 46 4 11 16 24 28 29 30 12 30 12 24 -4z m2824
-215 c74 -33 135 -64 137 -70 2 -6 -25 -8 -70 -6 -40 2 -87 4 -105 4 -17 1
-42 11 -56 23 -23 20 -24 24 -10 45 11 16 12 23 4 23 -7 0 -9 5 -6 10 3 6 -1
10 -11 10 -11 0 -15 -6 -11 -20 6 -24 -5 -26 -23 -5 -10 12 -10 18 0 30 7 8
14 15 15 15 1 0 63 -27 136 -59z m-1901 20 c0 -6 -4 -12 -9 -15 -5 -4 -9 -39
-9 -78 0 -52 2 -68 9 -55 6 10 14 15 20 12 5 -4 9 1 9 9 0 9 5 16 11 16 7 0
17 7 23 16 20 27 53 2 47 -38 0 -3 14 -10 31 -14 26 -5 35 -3 46 15 19 28 36
27 60 -6 18 -25 22 -26 38 -13 12 10 15 11 10 2 -4 -7 -1 -23 7 -35 21 -32 6
-63 -34 -71 -61 -12 -76 -29 -78 -86 -1 -54 -16 -94 -32 -85 -14 9 -51 -5 -46
-18 4 -12 -20 -36 -36 -37 -4 0 -7 8 -5 17 2 13 -8 21 -39 31 -31 10 -43 19
-43 33 0 10 -5 19 -11 19 -6 0 -9 7 -6 15 4 8 0 27 -8 42 -8 15 -15 34 -15 41
0 6 -5 12 -12 12 -6 0 -9 3 -5 6 3 4 -1 14 -10 23 -16 15 -15 16 10 19 50 6
28 23 -25 20 -52 -3 -53 -4 -56 -36 -3 -26 -7 -32 -23 -30 -18 3 -20 -4 -22
-74 -1 -44 -8 -83 -15 -90 -6 -6 -38 -14 -69 -16 -79 -5 -111 21 -120 96 -3
29 -8 50 -10 48 -3 -2 -7 -37 -10 -78 -3 -40 -6 -74 -7 -75 -3 -3 -86 -6 -143
-5 -50 2 -67 7 -90 26 -24 22 -26 27 -16 45 13 21 7 77 -8 87 -5 3 -9 27 -9
53 l0 48 -32 -6 c-35 -7 -45 -26 -48 -96 -2 -56 -18 -17 -19 48 -1 39 -5 49
-23 56 -14 5 -17 10 -10 15 7 4 12 16 12 26 0 32 23 71 39 68 11 -2 16 -16 18
-47 2 -57 14 -69 48 -47 25 17 26 19 10 36 -10 11 -14 26 -10 39 5 16 13 19
38 16 18 -3 136 -6 264 -7 216 -2 233 -1 253 17 11 10 19 24 16 31 -3 8 9 17
31 24 19 7 47 18 61 26 31 16 52 18 52 5z m-8663 -125 c40 -27 44 -34 39 -60
-4 -16 -8 -31 -10 -34 -3 -2 -36 15 -74 37 -83 49 -107 51 -116 14 -8 -28 -5
-31 59 -65 22 -11 51 -30 65 -41 l25 -19 -25 7 c-59 19 -89 22 -93 12 -2 -8
-13 -7 -36 2 -21 9 -35 11 -42 4 -6 -6 -29 -7 -62 -1 -29 4 -77 6 -108 4 -61
-4 -72 0 -82 26 -8 21 11 88 31 111 9 10 11 17 4 17 -7 0 -12 4 -12 9 0 6 74
10 172 11 94 0 174 3 177 5 8 9 42 -6 88 -39z m7236 -5 c10 -7 17 -24 17 -37
0 -12 5 -26 10 -29 17 -11 51 6 60 28 l9 22 0 -22 c1 -19 7 -23 31 -23 24 0
30 4 30 22 0 12 3 18 8 14 4 -4 7 -13 7 -19 0 -7 15 -13 33 -15 31 -3 32 -2
33 35 l1 38 11 -35 c12 -40 24 -51 45 -42 9 3 56 6 106 6 88 1 91 2 94 24 3
19 8 23 25 18 12 -3 30 -6 39 -6 17 0 17 -10 1 -110 -6 -36 -12 -45 -28 -45
-13 0 -21 8 -23 23 -2 12 -7 22 -12 22 -10 0 -17 -28 -25 -100 -10 -81 -6 -77
-76 -69 -37 4 -66 4 -69 -2 -4 -5 -49 -8 -102 -7 -88 2 -98 0 -115 -20 -20
-23 -73 -41 -73 -24 0 6 10 12 22 14 24 3 33 44 12 56 -7 4 -15 34 -17 72 -3
35 -10 66 -16 68 -6 2 -11 -3 -11 -12 0 -9 -4 -16 -10 -16 -18 0 -10 32 9 37
19 5 37 43 21 43 -5 0 -15 3 -24 6 -9 3 -16 1 -16 -4 0 -6 8 -13 18 -16 9 -2
-17 -4 -58 -3 l-75 2 0 55 c0 49 2 55 25 60 38 9 65 6 83 -9z m3043 -159 l2
-153 -62 1 c-33 0 -68 0 -76 -1 -23 0 -153 9 -167 12 -14 3 -28 37 -19 46 3 3
-1 15 -9 27 -8 11 -15 33 -15 48 0 16 -4 28 -9 28 -5 0 -11 19 -13 41 l-4 42
137 -5 c137 -5 168 -1 154 21 -10 17 34 53 60 49 19 -3 20 -10 21 -156z
m-3568 97 c12 -27 19 -55 16 -61 -4 -6 -6 -96 -5 -200 2 -189 -4 -278 -19
-278 -5 0 -11 8 -13 18 -3 9 -5 1 -6 -18 -1 -37 -22 -63 -60 -75 -20 -6 -21
-3 -17 52 3 32 9 78 15 103 6 25 10 62 11 83 0 20 5 37 10 37 6 0 10 -29 10
-67 0 -61 11 -105 24 -93 8 9 11 430 3 430 -5 0 -5 9 -2 20 4 14 1 22 -10 26
-10 4 -15 14 -12 25 3 12 0 16 -9 12 -17 -6 -17 -4 0 -44 9 -22 11 -42 5 -63
-5 -17 -9 -47 -9 -66 0 -19 -7 -43 -15 -54 -13 -17 -14 -13 -17 35 -2 40 -7
54 -18 54 -13 0 -15 -32 -15 -225 0 -195 -2 -229 -17 -252 -22 -33 -55 -42
-68 -18 -17 32 -42 212 -47 340 -4 86 -9 128 -18 135 -15 11 -32 70 -37 125
l-3 35 55 7 c30 4 91 10 134 13 44 3 82 7 84 10 15 14 31 0 50 -46z m2637 5
c73 0 142 -7 203 -20 22 -4 23 -7 20 -117 l-3 -112 -65 -7 c-149 -15 -193 -17
-203 -11 -16 10 -147 11 -147 1 0 -4 -7 -8 -15 -8 -8 0 -15 6 -15 14 0 8 -9
18 -20 21 -11 3 -23 18 -26 33 -3 15 -13 47 -21 72 -8 25 -16 53 -18 63 -2 9
-7 22 -10 27 -3 6 -1 10 5 10 7 0 9 8 5 20 -6 18 0 19 97 22 57 2 110 1 118
-2 8 -3 51 -5 95 -6z m-3040 -41 c3 -27 17 -118 31 -203 14 -85 31 -198 40
-250 8 -52 19 -115 24 -140 5 -25 11 -66 13 -92 4 -43 2 -47 -22 -57 -14 -5
-44 -11 -66 -13 l-40 -3 -6 65 c-8 78 -16 100 -38 101 -13 0 -13 2 2 8 17 6
17 8 -2 33 l-21 26 28 7 29 6 -3 192 c-3 168 -6 192 -20 195 -9 2 -20 0 -25
-5 -4 -4 -9 -86 -10 -181 -2 -182 -9 -221 -15 -78 -2 46 -9 103 -16 127 -20
73 -9 190 27 297 3 7 21 12 44 12 39 0 39 0 46 -47z m-350 17 c17 -7 17 -9 3
-9 -15 -1 -18 -11 -18 -60 0 -33 -5 -63 -10 -66 -6 -4 -8 -11 -5 -16 4 -5 -11
-9 -33 -9 -51 0 -53 -8 -46 -180 4 -78 2 -158 -4 -190 -10 -56 -8 -75 7 -51 5
7 14 10 20 7 6 -4 20 -4 31 -1 17 6 20 15 20 73 0 37 9 103 20 147 11 44 20
92 20 108 0 15 5 27 10 27 13 0 13 -57 0 -135 -5 -33 -18 -115 -28 -182 -19
-126 -31 -153 -64 -153 -15 0 -18 5 -13 21 6 18 4 20 -17 14 -12 -4 -30 -15
-39 -26 -9 -10 -36 -21 -60 -25 -51 -8 -59 -16 -59 -65 0 -58 14 -62 170 -47
32 3 35 0 38 -24 4 -35 -21 -73 -59 -88 -34 -14 -48 -8 -30 14 10 11 8 19 -6
35 -22 26 -37 27 -30 1 3 -13 -1 -21 -13 -25 -10 -3 -20 -16 -22 -28 -2 -16
-15 -26 -47 -36 -24 -8 -52 -22 -62 -32 -26 -26 -48 -24 -59 5 -5 13 -13 26
-17 29 -5 3 -10 37 -11 75 -3 59 0 72 15 81 17 10 17 12 1 21 -26 16 -27 197
-1 215 15 11 15 13 -5 24 -19 10 -22 20 -22 76 l0 64 -67 32 c-38 18 -74 31
-82 30 -7 -1 -11 4 -8 11 2 7 10 12 16 10 20 -4 12 23 -11 37 -19 12 -23 11
-35 -5 -17 -23 -16 -33 2 -40 32 -12 13 -19 -45 -16 -33 2 -60 6 -60 8 0 2 10
21 23 42 39 62 60 131 66 216 l6 81 205 3 c113 1 216 4 230 6 51 7 166 4 185
-4z m3877 -11 c-9 -11 -40 -31 -69 -44 -49 -23 -103 -83 -103 -115 0 -5 -4
-10 -10 -10 -5 0 -10 15 -11 33 0 17 -2 39 -4 47 -1 8 -6 36 -10 63 l-7 47
116 0 116 0 -18 -21z m-5634 -8 c2 -6 -5 -11 -15 -11 -11 0 -30 -11 -42 -24
-12 -13 -38 -32 -57 -42 -18 -10 -34 -22 -34 -26 0 -5 -7 -8 -15 -8 -8 0 -15
-6 -15 -14 0 -7 -11 -22 -25 -32 -18 -13 -25 -28 -25 -51 0 -18 -4 -33 -8 -33
-9 0 -16 235 -7 250 9 14 238 6 243 -9z m4277 -306 c310 -3 405 -9 405 -26 0
-6 -60 -8 -157 -4 -87 3 -230 7 -318 10 -88 2 -203 8 -255 12 -79 6 -88 9 -55
14 22 4 49 4 60 2 11 -3 155 -7 320 -8z m1010 -33 c44 0 163 -3 265 -7 198 -7
361 -12 478 -14 52 -1 71 -4 66 -12 -7 -11 -47 -11 -564 7 -80 3 -164 7 -188
9 -24 2 -106 5 -183 7 -76 2 -139 6 -139 10 0 10 108 14 150 6 19 -3 71 -6
115 -6z m-8743 -81 c2 -5 97 -12 211 -14 186 -5 210 -7 222 -23 11 -15 15 -16
28 -5 9 7 21 10 26 7 5 -4 29 0 53 9 46 16 227 20 263 5 17 -6 14 -9 -17 -15
-32 -6 -35 -9 -23 -21 7 -8 27 -14 44 -14 16 0 33 -5 37 -11 10 -17 -811 -1
-864 17 -7 2 -10 8 -7 14 4 6 10 8 15 5 17 -10 130 -14 130 -4 0 5 -29 9 -65
9 -56 0 -65 2 -63 17 2 11 -6 19 -22 24 l-25 7 27 1 c14 1 28 -3 30 -8z m4703
-19 c15 -11 13 -114 -2 -119 -7 -3 -13 -9 -13 -14 0 -5 6 -9 13 -9 9 0 13 -28
14 -102 2 -86 0 -103 -15 -114 -16 -13 -15 -14 6 -20 13 -4 22 -14 22 -26 0
-14 -5 -18 -15 -14 -8 3 -15 2 -16 -2 -4 -60 -11 -88 -23 -100 -37 -38 -112
31 -100 93 3 19 9 34 13 33 15 -5 91 13 91 21 0 5 -8 8 -17 6 -10 -2 -33 -6
-50 -9 l-33 -5 0 114 0 115 33 1 c17 0 41 4 52 9 15 7 5 9 -34 8 l-55 -2 -2
42 c-2 39 1 45 34 66 57 35 79 42 97 28z m686 -92 c13 0 24 10 31 31 10 29 11
29 28 12 9 -10 15 -25 12 -34 -2 -9 0 -19 5 -22 11 -7 7 -88 -5 -98 -9 -9
-139 -16 -147 -8 -5 6 29 165 43 199 4 8 8 -6 10 -32 3 -40 6 -48 23 -48z
m-840 -137 c1 -32 3 -79 5 -105 3 -43 1 -48 -20 -54 -12 -3 -26 -4 -32 -3 -5
1 -17 -1 -27 -6 -25 -11 -33 1 -15 22 9 10 13 23 11 30 -2 6 1 14 6 18 6 3 11
39 11 81 l0 74 30 0 c30 0 30 -1 31 -57z m-143 -70 l3 -42 -35 3 c-46 3 -46
-7 0 -29 19 -9 33 -22 31 -28 -6 -20 -65 -20 -85 0 -32 30 -58 94 -32 78 6 -3
10 -1 10 4 0 6 -7 11 -15 11 -8 0 -15 7 -15 14 0 23 50 42 95 36 39 -5 40 -6
43 -47z m143 -124 c-2 -8 -5 -27 -6 -44 -5 -87 -3 -84 -41 -94 -19 -5 -42 -7
-50 -4 -8 3 -21 0 -29 -7 -24 -20 -27 -7 -14 66 12 73 23 95 42 89 7 -2 28 0
47 4 43 11 56 8 51 -10z m-236 -59 c6 0 28 9 49 21 21 11 40 19 41 17 7 -7
-17 -98 -26 -98 -5 0 -15 11 -21 25 -6 14 -15 25 -20 25 -15 0 -8 -17 18 -43
15 -15 24 -33 21 -40 -5 -14 -98 -37 -149 -37 -16 0 -28 5 -28 13 0 20 21 140
25 148 3 4 22 -2 42 -12 21 -10 42 -19 48 -19z m-1806 -12 c3 -116 -3 -183
-16 -200 -21 -26 -45 -129 -33 -143 6 -7 7 -16 3 -18 -5 -3 -10 -29 -11 -59
-2 -61 -28 -128 -50 -128 -11 0 -13 7 -7 33 4 17 7 49 8 69 1 20 4 35 7 33 3
-2 6 15 6 38 0 50 9 113 24 182 6 28 14 70 17 95 5 35 8 40 14 25 5 -14 8 -4
8 31 1 40 13 74 27 74 2 0 3 -15 3 -32z m4233 -119 c2 -7 17 -13 33 -15 17 -2
53 -6 82 -9 44 -5 55 -3 72 14 22 22 43 19 73 -11 20 -20 38 -24 38 -8 0 6 7
10 15 10 8 0 15 -4 15 -10 0 -5 9 -10 20 -10 11 0 20 5 20 10 0 6 5 10 11 10
6 0 9 -7 5 -15 -3 -9 0 -15 9 -15 8 0 15 5 15 10 0 6 24 10 54 10 44 0 54 -3
52 -16 0 -9 4 -19 11 -21 7 -3 9 3 6 16 -7 27 13 27 29 1 10 -15 23 -20 53
-19 l40 2 -35 7 -35 7 43 2 c29 1 41 -3 40 -11 -2 -7 4 -13 12 -13 8 0 18 -4
23 -10 4 -6 10 1 14 15 l7 25 6 -24 c3 -14 12 -27 19 -29 10 -3 12 1 8 17 -6
24 -4 25 26 9 33 -17 85 -28 157 -32 36 -3 79 -7 95 -11 l30 -6 -25 15 c-29
18 -13 20 45 6 59 -15 134 -20 140 -10 3 5 24 2 46 -5 23 -8 78 -17 122 -20
45 -3 109 -8 142 -11 33 -4 71 -6 85 -6 14 0 30 -4 35 -8 6 -5 44 -11 85 -13
41 -3 65 -3 53 0 -13 2 -23 9 -23 15 0 5 7 7 16 4 9 -3 20 -6 25 -6 5 0 9 -7
9 -15 0 -17 25 -20 35 -5 10 16 28 11 21 -6 -4 -12 -1 -14 14 -9 11 4 20 2 20
-2 0 -5 38 -8 85 -6 70 3 85 2 85 -11 0 -10 10 -14 33 -14 17 0 50 -2 72 -5
21 -3 48 -1 58 5 14 7 22 7 27 -2 4 -6 38 -13 75 -15 38 -2 71 -9 75 -16 6 -8
13 -8 28 0 15 8 23 8 28 0 4 -8 9 -8 17 0 14 14 54 14 62 1 3 -5 21 -10 39
-10 19 0 47 -7 62 -15 35 -18 55 -19 88 -4 19 9 31 8 57 -5 36 -18 85 -21 94
-6 4 6 11 8 16 4 5 -3 6 -10 3 -16 -5 -7 1 -9 17 -5 16 4 36 -1 58 -14 17 -10
37 -17 42 -13 6 3 18 2 27 -2 9 -4 28 -8 42 -8 15 -1 25 -7 25 -16 0 -12 -13
-15 -69 -13 -37 2 -75 8 -82 14 -9 7 -24 8 -41 3 -16 -4 -32 -6 -38 -4 -5 2
-19 4 -30 5 -36 3 -100 16 -122 25 -15 6 -23 6 -23 0 0 -6 -25 -10 -55 -10
-30 0 -55 2 -55 4 0 2 -3 11 -6 20 -4 11 -1 16 11 16 9 0 13 -4 10 -10 -3 -6
4 -10 17 -10 39 0 -1 29 -50 35 -47 6 -52 1 -21 -23 19 -16 17 -17 -40 -14
-36 2 -65 9 -72 18 -12 15 -30 19 -28 7 3 -18 -2 -24 -13 -16 -7 4 -36 9 -64
9 -28 1 -61 5 -75 9 -13 5 -64 9 -114 9 -49 1 -99 6 -110 12 -11 6 -45 9 -75
7 -30 -2 -61 0 -70 3 -19 9 -15 8 -135 17 -55 5 -112 11 -127 13 -21 4 -28 2
-28 -11 0 -9 -5 -13 -11 -9 -8 4 -8 9 0 17 12 12 15 31 4 24 -5 -3 -46 -1 -93
4 -67 6 -89 5 -106 -6 -26 -17 -39 -8 -21 13 10 13 8 14 -15 9 -15 -4 -30 -3
-33 3 -4 6 -11 8 -16 4 -5 -3 -17 0 -25 7 -13 10 -17 10 -24 0 -4 -8 -13 -10
-20 -6 -7 4 -18 -2 -26 -14 -9 -12 -20 -18 -26 -15 -7 5 -4 12 7 21 16 11 17
15 6 26 -11 9 -14 9 -18 0 -3 -7 -9 -13 -14 -13 -6 0 -7 5 -3 11 4 8 -7 10
-37 8 -24 -1 -52 1 -61 5 -11 5 -23 2 -33 -8 -9 -9 -21 -16 -26 -16 -15 0 -10
17 7 24 27 10 8 19 -25 11 -19 -4 -28 -11 -25 -19 4 -10 -2 -12 -22 -8 -24 4
-25 6 -10 17 14 11 2 14 -76 20 -86 7 -93 6 -109 -14 -20 -25 -39 -27 -39 -5
0 10 6 14 15 10 21 -8 19 7 -4 21 -21 13 -31 8 -31 -18 0 -12 -6 -16 -20 -12
-23 6 -27 23 -5 23 8 0 12 6 9 13 -2 7 -25 14 -54 15 -45 2 -50 0 -51 -20 l-2
-23 -4 22 c-5 27 -31 35 -90 29 -32 -3 -43 -1 -43 10 0 16 -17 19 -22 3 -2 -7
-23 -7 -70 0 -36 6 -73 9 -81 5 -8 -3 -18 -1 -22 5 -8 13 -45 15 -45 2 0 -5
12 -12 26 -15 15 -4 33 -14 42 -22 13 -14 13 -17 0 -30 -9 -9 -22 -12 -33 -8
-17 7 -16 8 4 16 12 4 19 13 16 19 -4 6 -13 8 -21 5 -7 -3 -16 -1 -19 4 -11
17 -25 11 -25 -11 0 -15 -4 -19 -16 -15 -9 3 -21 6 -27 6 -7 0 -3 7 7 15 11 8
21 24 23 35 3 18 0 19 -17 10 -11 -6 -18 -15 -15 -21 4 -5 1 -9 -5 -9 -7 0 -9
8 -5 21 6 18 4 20 -14 14 -12 -3 -21 -2 -21 3 0 6 -20 9 -45 7 -24 -2 -47 0
-50 5 -3 5 -12 7 -20 3 -11 -4 -15 3 -15 26 0 30 14 43 22 20z m8 -159 c12 -7
12 -12 2 -22 -18 -18 -15 -38 7 -38 23 0 36 16 19 23 -7 2 8 2 35 -1 28 -3 47
-1 47 5 0 6 11 8 25 5 15 -2 25 0 25 8 0 15 42 9 48 -8 3 -9 -3 -11 -22 -6
-35 8 -35 -18 -1 -34 37 -17 75 -15 75 3 0 8 5 15 10 15 6 0 10 -3 10 -7 0
-11 50 -33 72 -33 10 0 18 6 18 13 1 7 6 4 15 -7 15 -19 35 -14 35 10 0 8 5
14 11 14 7 0 9 -10 5 -24 -6 -24 -5 -24 26 -15 18 5 34 9 35 9 2 0 3 8 4 18 0
9 3 12 5 5 3 -7 0 -21 -6 -32 -7 -14 -7 -21 0 -21 5 0 10 5 10 12 0 6 9 3 20
-7 24 -22 39 -13 16 10 -20 20 -20 26 -1 19 8 -4 15 -10 15 -15 0 -13 34 -11
48 3 7 7 12 8 12 2 0 -5 -5 -15 -12 -22 -9 -9 0 -11 40 -8 29 2 55 0 58 -6 3
-5 16 -8 27 -7 43 3 57 -1 57 -17 0 -14 1 -14 16 0 10 11 24 14 41 10 22 -6
24 -4 18 15 -5 17 -2 21 15 21 18 0 19 -3 10 -21 -11 -20 -10 -20 47 -14 32 3
62 10 67 15 12 12 26 13 26 1 0 -5 -11 -12 -25 -15 -40 -10 -18 -29 26 -23 22
3 42 1 45 -5 4 -6 22 -8 41 -5 28 5 34 3 29 -9 -4 -11 0 -13 22 -8 15 4 30 12
34 18 4 7 13 4 26 -7 10 -9 28 -17 40 -17 12 0 22 -4 22 -10 0 -5 5 -10 11
-10 7 0 9 11 6 28 -5 26 -4 27 33 27 27 0 36 -3 33 -13 -3 -7 -12 -11 -19 -8
-17 7 -29 -13 -16 -26 7 -7 19 -4 36 8 23 14 31 15 50 4 13 -7 29 -9 35 -6 6
4 26 0 45 -9 19 -9 39 -14 45 -11 5 4 14 -2 20 -11 9 -16 10 -16 11 4 0 12 -6
23 -12 26 -7 2 -10 8 -5 12 4 5 13 0 21 -10 9 -12 28 -19 58 -20 25 -1 50 -5
57 -9 6 -4 33 -9 59 -11 25 -2 48 -7 50 -13 2 -6 27 -8 62 -5 50 5 61 3 66
-11 5 -12 10 -14 20 -5 9 7 18 7 31 0 16 -9 14 -11 -12 -12 -16 -1 -34 -1 -39
0 -5 1 -41 4 -80 6 -39 3 -93 6 -121 8 -56 4 -129 -3 -120 -11 3 -3 27 -7 53
-9 26 -2 61 -4 77 -6 17 -1 32 -6 35 -12 7 -15 -73 -17 -82 -2 -5 9 -14 9 -39
0 -26 -10 -34 -10 -46 2 -17 18 -29 19 -38 4 -4 -6 -14 -7 -24 -3 -9 4 -26 6
-38 6 -11 -1 -24 5 -27 13 -3 8 -11 15 -18 15 -9 0 -9 -3 2 -10 8 -5 11 -12 7
-16 -3 -4 -13 -2 -20 4 -16 14 -175 29 -214 21 -4 -1 -16 1 -27 6 -12 5 -21 3
-27 -6 -7 -11 -11 -12 -17 -1 -5 7 -51 19 -107 27 -85 12 -101 12 -120 -1 -21
-13 -23 -13 -28 6 -4 16 -14 20 -54 21 -26 1 -53 1 -60 0 -6 -1 -14 2 -17 7
-3 5 -18 7 -34 4 -24 -3 -28 -8 -24 -28 2 -14 0 -24 -7 -24 -6 0 -11 11 -11
25 0 25 -4 27 -47 28 -13 0 -23 3 -23 7 0 4 -9 10 -21 13 -16 4 -19 2 -15 -10
5 -13 4 -14 -9 -3 -8 7 -15 20 -15 29 -1 15 -1 15 -10 0 -8 -13 -18 -14 -57
-7 -26 5 -65 8 -86 8 -22 -1 -46 5 -54 11 -12 10 -19 10 -35 0 -15 -9 -23 -9
-34 0 -13 11 -28 10 -68 -7 -16 -6 -18 -4 -13 9 5 14 -2 17 -46 19 -29 1 -63
1 -76 0 -14 -1 -31 3 -38 9 -7 6 -48 12 -92 14 -44 2 -88 8 -98 13 -10 6 -31
8 -46 5 -30 -6 -32 0 -17 43 8 22 18 30 37 32 14 1 32 7 39 13 11 9 14 8 14
-4 0 -11 6 -14 15 -11 8 4 22 1 29 -5 11 -9 16 -9 22 0 4 7 2 15 -5 17 -9 3
-9 7 0 18 13 16 19 17 39 4z m2110 -282 c7 -13 13 -33 11 -45 -2 -17 3 -23 18
-23 11 0 23 5 26 10 4 6 10 8 15 5 5 -3 14 4 20 15 13 23 30 27 30 5 0 -20 16
-19 24 2 5 12 10 13 18 5 7 -7 16 -8 23 -2 13 11 55 2 55 -11 0 -5 -13 -9 -30
-9 -21 0 -28 -4 -24 -14 8 -21 37 -25 90 -14 39 9 50 8 58 -4 12 -16 93 -21
102 -7 3 5 15 3 27 -5 12 -7 40 -14 62 -15 22 -1 42 -7 46 -12 3 -6 32 -14 63
-18 44 -6 56 -5 52 5 -4 9 4 11 31 7 26 -4 34 -3 29 5 -9 15 -7 15 45 -4 61
-21 106 -20 132 4 24 22 65 31 85 19 18 -12 52 2 53 21 0 14 3 13 16 -5 8 -13
22 -23 31 -23 8 0 20 -8 27 -17 11 -15 15 -15 29 -4 13 11 16 11 16 -1 0 -8
10 -23 22 -34 20 -17 21 -17 9 -1 -12 16 -12 20 2 34 15 15 17 15 23 0 3 -9
14 -17 24 -17 12 0 20 -10 24 -32 8 -40 -3 -51 -34 -34 -14 7 -31 11 -38 8 -6
-2 -12 0 -12 5 0 5 -15 10 -32 11 -58 1 -132 1 -157 -1 -13 -1 -26 4 -28 11
-3 7 4 12 17 12 12 0 18 5 15 10 -3 6 -17 10 -31 10 -17 0 -24 -5 -24 -20 0
-11 -7 -20 -15 -20 -8 0 -15 6 -15 14 0 14 -36 26 -58 18 -7 -2 -12 -10 -12
-18 0 -19 -16 -18 -24 1 -4 12 -19 15 -69 12 -35 -2 -68 -6 -73 -10 -5 -3 -16
-2 -24 3 -7 4 -19 6 -26 3 -7 -2 -33 4 -58 15 -38 17 -47 18 -56 7 -10 -12
-15 -12 -33 0 -12 7 -51 16 -87 19 -36 3 -55 3 -42 0 12 -3 22 -10 22 -15 0
-13 -37 -11 -46 2 -3 6 -15 8 -26 6 -10 -3 -36 2 -56 11 -20 8 -41 15 -46 14
-20 -6 -45 11 -48 30 -4 31 -28 35 -28 5 0 -14 6 -27 13 -30 6 -2 9 -8 5 -12
-10 -10 -38 20 -38 41 0 13 -3 14 -13 5 -8 -6 -17 -8 -20 -4 -4 3 -7 -4 -7
-16 0 -19 -3 -20 -21 -10 -12 6 -30 8 -42 5 -11 -3 -33 2 -50 10 -21 11 -32
13 -40 5 -12 -12 -57 -15 -57 -3 0 10 -92 9 -107 -1 -9 -6 -13 -2 -13 12 0 22
-15 28 -26 10 -4 -8 -9 -8 -17 0 -6 6 -8 13 -6 16 10 9 74 7 147 -5 59 -10 75
-10 88 1 13 11 17 10 25 -4 6 -9 14 -17 19 -17 15 0 12 34 -5 56 -18 24 -19
34 -2 34 7 0 19 -10 27 -22z"/>
<path d="M5165 3930 c-6 -10 40 -26 63 -22 7 2 12 -8 12 -22 0 -22 6 -27 40
-32 22 -4 40 -11 40 -16 0 -6 -36 -7 -97 -2 -54 4 -235 7 -403 6 -259 0 -326
-4 -445 -22 -77 -12 -156 -24 -175 -26 -19 -3 -44 -9 -55 -14 -11 -4 -85 -13
-165 -19 -327 -25 -488 -35 -542 -34 -58 0 -67 -7 -49 -36 5 -7 13 -11 18 -8
15 9 539 48 623 46 41 0 82 1 90 4 8 3 47 11 85 17 39 7 81 16 95 20 14 4 33
4 43 1 9 -4 47 -4 82 -1 97 8 75 -12 -29 -27 -147 -21 -211 -62 -243 -156 -17
-50 -38 -217 -48 -382 l-7 -119 -59 64 -59 65 1 124 c1 118 0 126 -21 143 -12
10 -28 18 -36 18 -9 0 -13 8 -10 23 3 20 9 22 64 25 l62 3 0 48 c0 82 0 82
-250 70 -299 -15 -277 -9 -289 -72 -5 -29 -14 -146 -21 -262 -6 -115 -13 -231
-16 -256 -5 -39 -3 -50 15 -68 19 -19 31 -22 94 -19 l72 3 8 -54 c4 -30 12
-60 18 -67 18 -21 78 -34 162 -34 87 0 117 17 117 68 0 15 3 37 6 49 6 22 6
22 30 -6 13 -16 24 -33 24 -37 0 -5 34 -29 76 -53 69 -41 75 -47 69 -70 -8
-32 -8 -61 -1 -69 10 -9 16 3 20 39 3 19 5 35 5 37 1 4 58 -27 97 -53 44 -30
60 -31 60 -6 0 10 -5 17 -11 14 -10 -3 -118 56 -136 75 -4 4 -1 26 7 50 22 62
11 77 -11 17 -10 -28 -20 -51 -21 -53 -1 -2 -21 8 -44 23 -28 18 -40 31 -36
41 5 12 1 14 -15 9 -20 -7 -20 -6 2 19 15 18 26 23 33 16 12 -12 36 -13 36 -1
0 5 -9 11 -21 14 -18 5 -19 8 -7 26 15 25 20 25 61 7 133 -58 300 -118 292
-105 -8 11 -75 43 -182 84 -40 15 -70 32 -67 37 3 5 13 8 22 7 58 -8 302 22
327 41 35 25 231 51 431 55 174 4 255 10 282 20 7 3 57 0 110 -5 53 -5 169
-12 257 -14 89 -3 194 -10 234 -16 82 -13 123 -8 115 15 -4 8 -10 13 -15 10
-9 -6 -32 31 -34 56 -1 10 -14 28 -29 41 -26 22 -29 33 -46 171 -12 87 -27
166 -39 192 -21 48 -14 60 13 23 16 -23 16 -23 14 10 -2 26 2 35 22 45 13 7
31 24 39 38 13 23 13 28 0 41 -33 33 -129 50 -374 68 -77 5 -151 12 -164 15
-26 7 -51 28 -51 44 0 6 -7 11 -15 11 -8 0 -15 4 -15 9 0 4 -12 6 -26 3 -19
-3 -25 -1 -20 7 4 6 14 11 22 11 8 0 14 5 14 11 0 7 -10 9 -25 7 -14 -3 -28
-1 -31 3 -7 12 -61 11 -69 -1z m439 -378 c2 -4 6 -46 8 -92 3 -83 3 -85 -19
-82 -13 2 -23 -1 -23 -6 0 -5 -28 -12 -62 -15 -35 -3 -73 -8 -85 -12 -18 -6
-23 -2 -31 27 -5 18 -21 64 -36 102 -14 37 -26 70 -26 72 0 11 267 17 274 6z
m-1239 -17 c394 -16 408 -18 419 -52 11 -37 11 -272 0 -283 -12 -12 -51 -13
-408 -11 l-229 1 7 103 c7 105 25 236 33 250 3 4 12 6 21 3 10 -3 80 -7 157
-11z m1362 -16 c8 -15 13 -69 13 -146 0 -119 -1 -122 -18 -105 -11 9 -17 20
-15 24 6 12 -9 38 -20 31 -6 -4 -8 0 -4 9 3 10 -1 18 -13 21 -19 5 -29 46 -33
137 -2 42 0 45 28 51 41 9 48 6 62 -22z"/>
<path d="M6355 3460 c-4 -6 -9 -35 -12 -66 -3 -30 -9 -56 -12 -58 -6 -4 -176
7 -318 19 -58 6 -73 4 -73 -6 0 -13 32 -108 59 -172 6 -16 11 -37 11 -47 0
-32 33 -40 174 -42 97 -2 136 -6 136 -15 0 -12 207 -24 222 -13 4 3 -6 21 -22
39 -17 18 -30 35 -30 39 0 4 -9 13 -20 20 -21 13 -27 47 -9 57 17 11 -13 125
-33 125 -7 0 -8 21 -3 56 5 43 3 59 -7 65 -18 12 -56 11 -63 -1z"/>
<path d="M4163 2587 c17 -67 28 -99 55 -159 l31 -68 45 0 45 0 -26 68 c-14 37
-34 93 -46 124 l-20 56 -45 0 c-40 0 -44 -2 -39 -21z"/>
<path d="M4330 2596 c0 -9 69 -186 83 -212 11 -21 22 -27 60 -30 26 -2 47 0
47 5 0 8 -42 117 -66 168 -8 17 -14 38 -14 46 0 8 -6 17 -12 19 -18 6 -98 10
-98 4z"/>
<path d="M6399 2419 c-16 -30 -1 -386 16 -393 8 -3 26 -1 42 3 25 7 28 12 27
47 -1 21 -2 112 -3 202 l-1 162 -35 0 c-25 0 -37 -6 -46 -21z"/>
<path d="M182 3103 c-11 -22 -3 -103 9 -103 5 0 19 -11 31 -25 12 -14 28 -25
36 -25 10 0 12 7 8 25 -8 30 -5 30 69 5 59 -20 75 -19 75 6 0 16 5 17 45 1 17
-7 30 -19 30 -27 0 -9 11 -16 28 -18 23 -3 27 0 27 22 0 37 -10 56 -31 56 -10
0 -19 7 -19 15 0 12 -4 13 -19 6 -10 -6 -39 -9 -62 -7 -24 2 -50 -1 -56 -6
-10 -8 -13 -6 -13 5 0 9 8 21 18 26 15 9 15 12 2 20 -10 7 -20 5 -33 -7 -17
-16 -19 -15 -28 1 -6 9 -17 17 -24 17 -8 0 -15 7 -15 15 0 22 -67 20 -78 -2z"/>
</g>
</svg>
